<?xml version="1.0" encoding="utf-8"?>
<!-- Generator: Adobe Illustrator 19.0.0, SVG Export Plug-In . SVG Version: 6.00 Build 0)  -->
<svg version="1.1" id="Layer_1" xmlns="http://www.w3.org/2000/svg" xmlns:xlink="http://www.w3.org/1999/xlink" x="0px" y="0px"
	 viewBox="0 0 200 65" style="enable-background:new 0 0 200 65;" xml:space="preserve">
<style type="text/css">
	.st0{fill:#FFFFFF;}
</style>
<g id="XMLID_1_">
	<path id="XMLID_21_" class="st0" d="M1.9,24.6L8,38.9h0.1l6.2-14.3H16v16.3h-1.3v-7.1l0.1-7.1h-0.1L8.5,40.9H7.6L1.4,26.6H1.3
		l0.1,7v7.1H0V24.6H1.9z"/>
	<path id="XMLID_20_" class="st0" d="M29.6,36.3H22l-1.8,4.6h-1.4l6.3-16.3h1.3l6.3,16.3h-1.4L29.6,36.3z M22.5,35h6.8L26,26.2h-0.1
		L22.5,35z"/>
	<path id="XMLID_18_" class="st0" d="M47.5,40.8h-1.4v-7.5h-9.5v7.5h-1.4V24.6h1.4v7.6h9.5v-7.6h1.4V40.8z"/>
	<path id="XMLID_17_" class="st0" d="M61.1,36.3h-7.6l-1.8,4.6h-1.4l6.3-16.3H58l6.3,16.3h-1.4L61.1,36.3z M54,35h6.8l-3.3-8.8h-0.1
		L54,35z"/>
	<path id="XMLID_15_" class="st0" d="M83.7,25.7H78v15.1h-1.4V25.7h-5.7v-1.2h12.9V25.7z"/>
	<path id="XMLID_14_" class="st0" d="M95.9,32.9h-8.1v6.8h9.2v1.2H86.5V24.6h10.5v1.2h-9.1v6.1H96v1.1H95.9z"/>
	<path id="XMLID_12_" class="st0" d="M101.9,24.6l6.1,14.3h0.1l6.2-14.3h1.8v16.3h-1.4v-7.1l0.1-7.1h-0.1l-6.2,14.3h-0.9l-6.1-14.3
		h-0.1l0.1,7v7.1H100V24.6H101.9z"/>
	<path id="XMLID_10_" class="st0" d="M121.8,34.1v6.8h-1.4V24.6h5.7c1.8,0,3.2,0.5,4.1,1.3c0.9,0.8,1.4,2,1.4,3.4s-0.5,2.6-1.4,3.5
		c-0.9,0.8-2.3,1.3-4.1,1.3H121.8z M121.8,32.9h4.3c1.4,0,2.5-0.4,3.2-1.1c0.7-0.7,1.1-1.5,1.1-2.6c0-1.1-0.4-1.9-1.1-2.6
		c-0.7-0.7-1.8-1.1-3.2-1.1h-4.3V32.9z"/>
	<path id="XMLID_9_" class="st0" d="M136.3,39.7h8.3v1.2H135V24.6h1.4v15.1H136.3z"/>
	<path id="XMLID_8_" class="st0" d="M156.5,36.3h-7.6l-1.8,4.6h-1.4l6.3-16.3h1.3l6.3,16.3h-1.4L156.5,36.3z M149.3,35h6.8l-3.3-8.8
		h-0.1L149.3,35z"/>
	<path id="XMLID_6_" class="st0" d="M172,25.7h-5.7v15.1h-1.4V25.7h-5.7v-1.2H172L172,25.7L172,25.7z"/>
	<path id="XMLID_5_" class="st0" d="M184.1,32.9H176v6.8h9.2v1.2h-10.5V24.6h10.5v1.2h-9.1v6.1h8.1v1.1H184.1z"/>
	<path id="XMLID_2_" class="st0" d="M197.7,36.8c0-0.9-0.4-1.6-1.1-2.2c-0.7-0.6-1.9-1.1-3.5-1.5c-1.9-0.5-3.2-1.1-4.1-1.8
		c-0.9-0.7-1.4-1.6-1.4-2.9c0-1.3,0.5-2.2,1.5-3c1.1-0.8,2.5-1.2,4.1-1.2c1.8,0,3.2,0.5,4.2,1.4s1.5,2.1,1.5,3.4V29h-1.3
		c0-1.1-0.4-2-1.2-2.7c-0.8-0.7-1.9-1.1-3.3-1.1c-1.3,0-2.3,0.2-3.2,0.8c-0.7,0.6-1.2,1.3-1.2,2.1s0.4,1.5,1.1,2
		c0.7,0.6,1.9,1.1,3.6,1.4c1.8,0.5,3.2,1.1,4.1,1.8s1.4,1.8,1.4,3s-0.6,2.3-1.6,3c-1.1,0.8-2.5,1.2-4.2,1.2c-1.6,0-3.2-0.4-4.3-1.2
		c-1.3-0.8-1.9-2-1.8-3.5v-0.1h1.3c0,1.3,0.5,2.2,1.4,2.8c0.9,0.6,2.1,0.9,3.4,0.9c1.3,0,2.3-0.2,3.2-0.8
		C197.4,38.5,197.7,37.7,197.7,36.8z"/>
</g>
</svg>
