<?xml version="1.0" encoding="utf-8"?>
<!-- Generator: Adobe Illustrator 23.0.0, SVG Export Plug-In . SVG Version: 6.00 Build 0)  -->
<svg version="1.1" id="Layer_1" xmlns="http://www.w3.org/2000/svg" xmlns:xlink="http://www.w3.org/1999/xlink" x="0px" y="0px"
	 viewBox="0 0 200 70" style="enable-background:new 0 0 200 70;" xml:space="preserve">
<style type="text/css">
	.st0{fill:#F97878;}
	.st1{fill:#FF5A5F;}
</style>
<g id="XMLID_1_">
	<polyline id="XMLID_18_" class="st0" points="11.7,43 23.4,35.7 23.4,31.4 11.7,38.6 	"/>
	<polyline id="XMLID_21_" class="st1" points="11.7,43 0,35.7 3.7,33.7 11.7,38.6 	"/>
	<polyline id="XMLID_6_" class="st1" points="0,35.7 7.8,31.4 7.8,31.4 11.7,34.3 14.7,32.1 7.8,27 0,31.4 	"/>
	<polyline id="XMLID_9_" class="st0" points="19.8,33.7 15.6,31.4 14.6,32.1 11.7,29.9 15.6,27 23.4,31.4 	"/>
</g>
<g>
	<path d="M35.8,42.2h-1.1V27.8h1.1l5.2,11.9h0l5.2-11.9h1.1v14.3h-1.1V30.4h0l-4.7,10.7h-1.1l-4.7-10.7h0V42.2z"/>
	<path d="M51.1,42.2h-1.2L55,27.8h1.2l5.2,14.3h-1.2l-1.6-4.7h-5.8L51.1,42.2z M55.6,29.3L55.6,29.3L53,36.5h5.1L55.6,29.3z"/>
	<path d="M74.1,42.2h-1.1v-7h-8v7h-1.1V27.8h1.1v6.3h8v-6.3h1.1V42.2z"/>
	<path d="M77.7,42.2h-1.2l5.2-14.3h1.2L88,42.2h-1.2l-1.6-4.7h-5.8L77.7,42.2z M82.2,29.3L82.2,29.3l-2.6,7.3h5.1L82.2,29.3z"/>
	<path d="M99,42.2h-1.1V28.9h-4.6v-1.1h10.3v1.1H99V42.2z"/>
	<path d="M114.2,41.1v1.1h-8.3V27.8h8.3v1.1h-7.2v5.4h6.8v1h-6.8v5.8H114.2z"/>
	<path d="M118.5,42.2h-1.1V27.8h1.1l5.2,11.9h0l5.2-11.9h1.1v14.3h-1.1V30.4h0l-4.7,10.7h-1.1l-4.7-10.7h0V42.2z"/>
	<path d="M134,27.8h4.8c1.4,0,2.5,0.4,3.3,1.2c0.8,0.8,1.2,1.8,1.2,3.1c0,1.3-0.4,2.4-1.2,3.1c-0.8,0.8-1.9,1.2-3.3,1.2h-3.7v5.8
		H134V27.8z M135.2,28.9v6.5h3c1.3,0,2.3-0.3,2.9-0.8c0.7-0.5,1-1.3,1-2.5c0-1-0.3-1.8-0.9-2.4c-0.6-0.6-1.4-0.9-2.5-0.9H135.2z"/>
	<path d="M154.2,41.1v1.1H146V27.8h1.1v13.3H154.2z"/>
	<path d="M156.8,42.2h-1.2l5.2-14.3h1.2l5.2,14.3h-1.2l-1.6-4.7h-5.8L156.8,42.2z M161.3,29.3L161.3,29.3l-2.6,7.3h5.1L161.3,29.3z"
		/>
	<path d="M172.5,42.2h-1.1V28.9h-4.6v-1.1h10.3v1.1h-4.6V42.2z"/>
	<path d="M187.7,41.1v1.1h-8.3V27.8h8.3v1.1h-7.2v5.4h6.8v1h-6.8v5.8H187.7z"/>
	<path d="M189.9,38.5h1.2c0,0.4,0.1,0.7,0.3,1c0.2,0.3,0.4,0.7,0.7,0.9c0.3,0.3,0.7,0.5,1.2,0.7c0.5,0.2,1.1,0.3,1.7,0.3
		c1.1,0,2-0.3,2.7-0.8c0.7-0.5,1-1.3,1-2.1c0-0.8-0.2-1.4-0.7-1.8c-0.5-0.4-1.2-0.8-2.3-1l-2.1-0.6c-2.2-0.6-3.3-1.8-3.3-3.7
		c0-1.2,0.4-2.2,1.3-2.9c0.9-0.7,2-1.1,3.4-1.1c1.3,0,2.5,0.3,3.3,1c0.9,0.7,1.3,1.6,1.3,2.7h-1.2c-0.1-0.8-0.4-1.4-1-1.9
		c-0.6-0.5-1.4-0.8-2.6-0.8c-1.1,0-1.9,0.3-2.6,0.8c-0.6,0.5-1,1.2-1,2.1c0,0.7,0.2,1.2,0.6,1.7c0.4,0.4,1,0.7,1.9,1l2.1,0.6
		c0.6,0.2,1.2,0.4,1.6,0.6c0.4,0.2,0.8,0.4,1.2,0.7c0.4,0.3,0.6,0.7,0.8,1.1c0.2,0.4,0.3,0.9,0.3,1.5c0,1.3-0.5,2.3-1.4,3
		c-0.9,0.7-2.2,1.1-3.7,1.1c-0.7,0-1.3-0.1-1.9-0.3s-1-0.4-1.4-0.7c-0.4-0.3-0.7-0.6-0.9-0.9c-0.2-0.4-0.4-0.7-0.5-1.1
		C190,39.2,189.9,38.8,189.9,38.5z"/>
</g>
</svg>
