<?xml version="1.0" encoding="utf-8"?>
<!-- Generator: Adobe Illustrator 23.0.0, SVG Export Plug-In . SVG Version: 6.00 Build 0)  -->
<svg version="1.1" id="Layer_1" xmlns="http://www.w3.org/2000/svg" xmlns:xlink="http://www.w3.org/1999/xlink" x="0px" y="0px"
	 viewBox="0 0 222 65" style="enable-background:new 0 0 222 65;" xml:space="preserve">
<style type="text/css">
	.st0{fill-rule:evenodd;clip-rule:evenodd;fill:#226A7C;}
	.st1{clip-path:url(#SVGID_1_);}
	.st2{fill:#231F20;}
	.st3{clip-path:url(#SVGID_2_);}
	.st4{clip-path:url(#SVGID_3_);}
	.st5{fill-rule:evenodd;clip-rule:evenodd;fill:#EE7A2A;}
	.st6{clip-path:url(#SVGID_4_);}
	.st7{fill-rule:evenodd;clip-rule:evenodd;fill:#FFFFFF;}
	.st8{clip-path:url(#SVGID_5_);}
</style>
<g>
	<path class="st0" d="M134.16,0.14h13.76l33.54,45.15c0,0,0-34.4,0-38.27c0-3.87-5.3-6.74-5.3-6.74h17.2c0,0-4.51,2.58-4.51,6.67
		c0,4.09,0,58.05,0,58.05s-7.95-3.23-13.97-11.39c-6.02-8.17-28.59-37.62-28.59-37.62s0,36.98,0,39.77c0,2.8,4.73,6.24,4.73,6.24
		h-16.98c0,0,4.73-2.58,4.73-6.02c0-3.44,0-43.21,0-48.37S134.16,0.14,134.16,0.14z"/>
	<g>
		<defs>
			<path id="SVGID_11_" d="M134.16,0.14h13.76l33.54,45.15c0,0,0-34.4,0-38.27c0-3.87-5.3-6.74-5.3-6.74h17.2
				c0,0-4.51,2.58-4.51,6.67c0,4.09,0,58.05,0,58.05s-7.95-3.23-13.97-11.39c-6.02-8.17-28.59-37.62-28.59-37.62s0,36.98,0,39.77
				c0,2.8,4.73,6.24,4.73,6.24h-16.98c0,0,4.73-2.58,4.73-6.02c0-3.44,0-43.21,0-48.37S134.16,0.14,134.16,0.14z"/>
		</defs>
		<clipPath id="SVGID_1_">
			<use xlink:href="#SVGID_11_"  style="overflow:visible;"/>
		</clipPath>
	</g>
	<path class="st0" d="M207.97,45.29V7.02c0-3.87-5.3-6.74-5.3-6.74h20.14c0,0-4.51,2.58-4.51,6.67V54.9c0,3.66,4.3,6.45,4.3,6.45
		l-19.35,0.21c0,0,4.73-2.94,4.73-5.95C207.97,52.6,207.97,45.29,207.97,45.29z"/>
	<g>
		<defs>
			<path id="SVGID_13_" d="M207.97,45.29V7.02c0-3.87-5.3-6.74-5.3-6.74h20.14c0,0-4.51,2.58-4.51,6.67V54.9
				c0,3.66,4.3,6.45,4.3,6.45l-19.35,0.21c0,0,4.73-2.94,4.73-5.95C207.97,52.6,207.97,45.29,207.97,45.29z"/>
		</defs>
		<clipPath id="SVGID_2_">
			<use xlink:href="#SVGID_13_"  style="overflow:visible;"/>
		</clipPath>
	</g>
	<path class="st0" d="M92.45,6.16v18.49h8.81c4.08,0,9.89-2.15,9.89-9.67c0-7.53-8.6-8.81-11.61-8.81H92.45L92.45,6.16z
		 M92.45,30.67v24.08h11.61c4.52,0,12.9-3.87,12.9-11.39c0-7.53-6.88-12.68-13.33-12.68H92.45L92.45,30.67z M77.47,0.07h29.67
		c6.66,0,14.33,5.66,14.33,13.4c0,10.53-8.1,11.97-8.1,11.97s14.19,3.44,14.19,16.98c0,13.55-15.48,18.7-20.64,18.7H77.04
		c0,0,5.16-2.79,5.16-7.31V7.38C82.2,2.65,77.47,0.07,77.47,0.07z"/>
	<g>
		<defs>
			<path id="SVGID_15_" d="M92.45,6.16v18.49h8.81c4.08,0,9.89-2.15,9.89-9.67c0-7.53-8.6-8.81-11.61-8.81H92.45L92.45,6.16z
				 M92.45,30.67v24.08h11.61c4.52,0,12.9-3.87,12.9-11.39c0-7.53-6.88-12.68-13.33-12.68H92.45L92.45,30.67z M77.47,0.07h29.67
				c6.66,0,14.33,5.66,14.33,13.4c0,10.53-8.1,11.97-8.1,11.97s14.19,3.44,14.19,16.98c0,13.55-15.48,18.7-20.64,18.7H77.04
				c0,0,5.16-2.79,5.16-7.31V7.38C82.2,2.65,77.47,0.07,77.47,0.07z"/>
		</defs>
		<clipPath id="SVGID_3_">
			<use xlink:href="#SVGID_15_"  style="overflow:visible;"/>
		</clipPath>
	</g>
	<rect class="st5" width="61.49" height="61.49"/>
	<g>
		<defs>
			<rect id="SVGID_17_" width="61.49" height="61.49"/>
		</defs>
		<clipPath id="SVGID_4_">
			<use xlink:href="#SVGID_17_"  style="overflow:visible;"/>
		</clipPath>
	</g>
	<path class="st7" d="M19.78,0h7.74c0,0-1.29,3.87,0,12.04c1.29,8.17,7.74,14.19,7.74,14.19s-2.15-5.16,6.45-14.19
		c8.6-9.03,19.78-3.44,19.78-3.44v10.75c0,0-7.74-9.89-15.91-5.16c-6.01,3.48-9.46,8.6-1.72,21.07C51.6,47.73,61.49,43,61.49,43
		v3.01c0,0-4.3,3.87-12.9,2.58c-5.35-0.8-9.67-4.25-14.37-9.78l-7.53,6.02c4.74,5.7,8.56,9.86,9.86,10.64
		c4.3,2.58,7.31,2.58,7.31,2.58l-4.3,3.44h-9.89c0,0,0.86-2.15-0.86-3.87c-1.72-1.72-7.17-8.89-7.17-8.89L6.02,61.49H0.25
		l18.67-15.48L0,22.79V11.18c0,0,13.76,17.73,24.46,30.76l7.4-6.04c-2.06-2.62-4.55-6.09-6.92-9.25C15.91,14.62,19.78,0,19.78,0z"/>
	<g>
		<defs>
			<path id="SVGID_19_" d="M19.78,0h7.74c0,0-1.29,3.87,0,12.04c1.29,8.17,7.74,14.19,7.74,14.19s-2.15-5.16,6.45-14.19
				c8.6-9.03,19.78-3.44,19.78-3.44v10.75c0,0-7.74-9.89-15.91-5.16c-6.01,3.48-9.46,8.6-1.72,21.07C51.6,47.73,61.49,43,61.49,43
				v3.01c0,0-4.3,3.87-12.9,2.58c-5.35-0.8-9.67-4.25-14.37-9.78l-7.53,6.02c4.74,5.7,8.56,9.86,9.86,10.64
				c4.3,2.58,7.31,2.58,7.31,2.58l-4.3,3.44h-9.89c0,0,0.86-2.15-0.86-3.87c-1.72-1.72-7.17-8.89-7.17-8.89L6.02,61.49H0.25
				l18.67-15.48L0,22.79V11.18c0,0,13.76,17.73,24.46,30.76l7.4-6.04c-2.06-2.62-4.55-6.09-6.92-9.25C15.91,14.62,19.78,0,19.78,0z"
				/>
		</defs>
		<clipPath id="SVGID_5_">
			<use xlink:href="#SVGID_19_"  style="overflow:visible;"/>
		</clipPath>
	</g>
</g>
</svg>
