<?xml version="1.0" encoding="utf-8"?>
<!-- Generator: Adobe Illustrator 19.0.0, SVG Export Plug-In . SVG Version: 6.00 Build 0)  -->
<svg version="1.1" id="Layer_1" xmlns="http://www.w3.org/2000/svg" xmlns:xlink="http://www.w3.org/1999/xlink" x="0px" y="0px"
	 viewBox="0 0 300 70" style="enable-background:new 0 0 300 70;" xml:space="preserve">
<style type="text/css">
	.st0{fill:#F97878;}
	.st1{fill:#FF5A5F;}
</style>
<g id="XMLID_1_">
	<polyline id="XMLID_18_" class="st0" points="18.7,47.8 37.5,36.2 37.5,29.2 18.7,40.8 	"/>
	<polyline id="XMLID_21_" class="st1" points="18.7,47.8 0,36.2 5.9,32.9 18.7,40.8 	"/>
	<polyline id="XMLID_6_" class="st1" points="0,36.2 12.5,29.2 12.5,29.2 18.7,33.8 23.5,30.4 12.5,22.2 0,29.2 	"/>
	<polyline id="XMLID_9_" class="st0" points="31.6,32.9 25,29.2 23.4,30.4 18.7,26.9 25,22.2 37.5,29.2 	"/>
</g>
<g id="XMLID_3_">
	<path id="XMLID_4_" d="M49,28.1l5.2,12.2h0.1l5.3-12.2h1.5v13.9H60v-6.1l0.1-6.1l-0.1,0l-5.3,12.2h-0.8l-5.3-12.2l-0.1,0l0.1,6v6.1
		h-1.2V28.1H49z"/>
	<path id="XMLID_7_" d="M72.7,38.1h-6.5l-1.5,3.9h-1.2l5.4-13.9H70l5.4,13.9h-1.2L72.7,38.1z M66.6,37h5.8l-2.8-7.5h-0.1L66.6,37z"
		/>
	<path id="XMLID_11_" d="M88,41.9h-1.2v-6.4h-8.1v6.4h-1.2V28.1h1.2v6.5h8.1v-6.5H88V41.9z"/>
	<path id="XMLID_13_" d="M99.6,38.1h-6.5l-1.5,3.9h-1.2l5.4-13.9h1.1l5.4,13.9h-1.2L99.6,38.1z M93.5,37h5.8l-2.8-7.5h-0.1L93.5,37z
		"/>
	<path id="XMLID_16_" d="M118.9,29H114v12.9h-1.2V29h-4.9v-1h11V29z"/>
	<path id="XMLID_19_" d="M129.3,35.2h-6.9V41h7.9v1h-9V28.1h9v1h-7.8v5.2h6.9V35.2z"/>
	<path id="XMLID_22_" d="M134.4,28.1l5.2,12.2h0.1l5.3-12.2h1.5v13.9h-1.2v-6.1l0.1-6.1l-0.1,0l-5.3,12.2h-0.8L134,29.8l-0.1,0
		l0.1,6v6.1h-1.2V28.1H134.4z"/>
	<path id="XMLID_24_" d="M151.4,36.2v5.8h-1.2V28.1h4.9c1.5,0,2.7,0.4,3.5,1.1c0.8,0.7,1.2,1.7,1.2,2.9c0,1.2-0.4,2.2-1.2,3
		c-0.8,0.7-2,1.1-3.5,1.1H151.4z M151.4,35.2h3.7c1.2,0,2.1-0.3,2.7-0.9c0.6-0.6,0.9-1.3,0.9-2.2c0-0.9-0.3-1.6-0.9-2.2
		c-0.6-0.6-1.5-0.9-2.7-0.9h-3.7V35.2z"/>
	<path id="XMLID_27_" d="M163.8,41h7.1v1h-8.2V28.1h1.2V41z"/>
	<path id="XMLID_29_" d="M181.1,38.1h-6.5l-1.5,3.9h-1.2l5.4-13.9h1.1l5.4,13.9h-1.2L181.1,38.1z M174.9,37h5.8l-2.8-7.5h-0.1
		L174.9,37z"/>
	<path id="XMLID_32_" d="M194.3,29h-4.9v12.9h-1.2V29h-4.9v-1h11V29z"/>
	<path id="XMLID_34_" d="M204.6,35.2h-6.9V41h7.9v1h-9V28.1h9v1h-7.8v5.2h6.9V35.2z"/>
	<path id="XMLID_36_" d="M216.3,38.5c0-0.8-0.3-1.4-0.9-1.9c-0.6-0.5-1.6-0.9-3-1.3c-1.6-0.4-2.7-0.9-3.5-1.5
		c-0.8-0.6-1.2-1.4-1.2-2.5c0-1.1,0.4-1.9,1.3-2.6c0.9-0.7,2.1-1,3.5-1c1.5,0,2.7,0.4,3.6,1.2c0.9,0.8,1.3,1.8,1.3,2.9l0,0.1h-1.1
		c0-0.9-0.3-1.7-1-2.3c-0.7-0.6-1.6-0.9-2.8-0.9c-1.1,0-2,0.2-2.7,0.7c-0.6,0.5-1,1.1-1,1.8c0,0.7,0.3,1.3,0.9,1.7
		c0.6,0.5,1.6,0.9,3.1,1.2c1.5,0.4,2.7,0.9,3.5,1.5c0.8,0.6,1.2,1.5,1.2,2.6c0,1.1-0.5,2-1.4,2.6c-0.9,0.7-2.1,1-3.6,1
		c-1.4,0-2.7-0.3-3.7-1c-1.1-0.7-1.6-1.7-1.5-3l0-0.1h1.1c0,1.1,0.4,1.9,1.2,2.4c0.8,0.5,1.8,0.8,2.9,0.8c1.1,0,2-0.2,2.7-0.7
		C216,40,216.3,39.3,216.3,38.5z"/>
</g>
</svg>
