<?xml version="1.0" encoding="utf-8"?>
<!-- Generator: Adobe Illustrator 19.0.0, SVG Export Plug-In . SVG Version: 6.00 Build 0)  -->
<svg version="1.1" id="Layer_1" xmlns="http://www.w3.org/2000/svg" xmlns:xlink="http://www.w3.org/1999/xlink" x="0px" y="0px"
	 viewBox="0 0 200 120" style="enable-background:new 0 0 200 120;" xml:space="preserve">
<style type="text/css">
	.st0{fill:#FF5A5F;}
	.st1{fill:none;stroke:#FFFFFF;stroke-miterlimit:10;}
</style>
<rect id="XMLID_4_" class="st0" width="200" height="120"/>
<g id="XMLID_1_">
	<rect id="XMLID_8_" x="192.6" y="33.3" class="st1" width="0.5" height="32"/>
	
		<rect id="XMLID_16_" x="127.1" y="17.1" transform="matrix(0.8884 0.459 -0.459 0.8884 26.0319 -72.3842)" class="st1" width="69.7" height="0.5"/>
	
		<rect id="XMLID_3_" x="37.9" y="14.5" transform="matrix(0.4585 0.8887 -0.8887 0.4585 64.4943 -7.1735)" class="st1" width="0.5" height="69.7"/>
	
		<rect id="XMLID_6_" x="128.9" y="41.5" transform="matrix(0.8884 0.459 -0.459 0.8884 35.6038 -62.9331)" class="st1" width="36.7" height="0.5"/>
	
		<rect id="XMLID_10_" x="146.2" y="6.5" transform="matrix(0.498 0.8672 -0.8672 0.498 125.5351 -96.8587)" class="st1" width="0.5" height="107.1"/>
	
		<rect id="XMLID_17_" x="146.2" y="38.5" transform="matrix(0.498 0.8672 -0.8672 0.498 153.2723 -80.8026)" class="st1" width="0.5" height="107.1"/>
	
		<rect id="XMLID_12_" x="37.8" y="-17.5" transform="matrix(0.4591 0.8884 -0.8884 0.4591 36.0224 -24.4547)" class="st1" width="0.5" height="69.7"/>
	
		<rect id="XMLID_19_" x="31.6" y="68.2" transform="matrix(0.8672 0.4979 -0.4979 0.8672 43.1259 -24.8912)" class="st1" width="73.2" height="0.5"/>
	
		<rect id="XMLID_2_" x="0" y="91.7" transform="matrix(0.8672 0.4979 -0.4979 0.8672 52.9112 -14.4596)" class="st1" width="107.1" height="0.5"/>
	<rect id="XMLID_11_" x="6.9" y="33.3" class="st1" width="0.5" height="32"/>
	<rect id="XMLID_20_" x="99.8" y="86.7" class="st1" width="0.5" height="32"/>
	
		<rect id="XMLID_15_" x="63.2" y="19.8" transform="matrix(0.8235 0.5673 -0.5673 0.8235 28.3712 -51.0397)" class="st1" width="66" height="0.5"/>
	
		<rect id="XMLID_7_" x="65.7" y="43.8" transform="matrix(0.8235 0.5673 -0.5673 0.8235 39.8861 -40.1841)" class="st1" width="37.6" height="0.5"/>
	
		<rect id="XMLID_5_" x="115.2" y="-6.8" transform="matrix(0.5673 0.8235 -0.8235 0.5673 59.8737 -89.897)" class="st1" width="0.5" height="37.6"/>
	
		<rect id="XMLID_9_" x="126.8" y="31.3" transform="matrix(0.5673 0.8235 -0.8235 0.5673 84.6597 -89.0216)" class="st1" width="0.5" height="9.5"/>
	
		<rect id="XMLID_18_" x="111.4" y="32.4" transform="matrix(0.5673 0.8235 -0.8235 0.5673 86.7088 -71.7977)" class="st1" width="0.5" height="28.4"/>
</g>
</svg>
