<?xml version="1.0" encoding="utf-8"?>
<!-- Generator: Adobe Illustrator 23.0.0, SVG Export Plug-In . SVG Version: 6.00 Build 0)  -->
<svg version="1.1" id="Layer_1" xmlns="http://www.w3.org/2000/svg" xmlns:xlink="http://www.w3.org/1999/xlink" x="0px" y="0px"
	 viewBox="0 0 200 70" style="enable-background:new 0 0 200 70;" xml:space="preserve">
<style type="text/css">
	.st0{fill:#F97878;}
	.st1{fill:#FF5A5F;}
</style>
<g id="XMLID_1_">
	<polyline id="XMLID_18_" class="st0" points="11.7,43 23.4,35.7 23.4,31.4 11.7,38.6 	"/>
	<polyline id="XMLID_21_" class="st1" points="11.7,43 0,35.7 3.7,33.7 11.7,38.6 	"/>
	<polyline id="XMLID_6_" class="st1" points="0,35.7 7.8,31.4 7.8,31.4 11.7,34.3 14.7,32.1 7.8,27 0,31.4 	"/>
	<polyline id="XMLID_9_" class="st0" points="19.8,33.7 15.6,31.4 14.6,32.1 11.7,29.9 15.6,27 23.4,31.4 	"/>
</g>
<g>
	<path d="M35.9,42.2h-1.3V27.8H36l5,11.6h0l5-11.6h1.4v14.3h-1.3v-11h-0.1l-4.4,9.9h-1.3L36,31.1h0V42.2z"/>
	<path d="M51.2,42.2h-1.5l5.2-14.3h1.5l5.1,14.3h-1.5l-1.6-4.5h-5.6L51.2,42.2z M55.6,29.7L55.6,29.7l-2.4,6.8h4.7L55.6,29.7z"/>
	<path d="M74.2,42.2h-1.5v-6.8h-7.6v6.8h-1.5V27.8h1.5v6.2h7.6v-6.2h1.5V42.2z"/>
	<path d="M78,42.2h-1.5l5.2-14.3H83l5.1,14.3h-1.5l-1.6-4.5h-5.6L78,42.2z M82.3,29.7L82.3,29.7l-2.4,6.8h4.7L82.3,29.7z"/>
	<path d="M99.1,42.2h-1.5v-13h-4.5v-1.3h10.4v1.3h-4.5V42.2z"/>
	<path d="M114.1,40.8v1.3h-8.4V27.8h8.4v1.3h-7v5h6.6v1.3h-6.6v5.3H114.1z"/>
	<path d="M118.6,42.2h-1.3V27.8h1.4l5,11.6h0l5-11.6h1.4v14.3h-1.3v-11h-0.1l-4.4,9.9H123l-4.4-9.9h0V42.2z"/>
	<path d="M133.8,27.8h5c1.4,0,2.5,0.4,3.3,1.2c0.8,0.8,1.2,1.9,1.2,3.2s-0.4,2.4-1.2,3.2s-1.9,1.2-3.3,1.2h-3.5v5.6h-1.5V27.8z
		 M135.3,29.2v6h2.5c1.3,0,2.3-0.2,3-0.7c0.7-0.4,1-1.2,1-2.4c0-1-0.3-1.7-0.8-2.2s-1.3-0.8-2.3-0.8H135.3z"/>
	<path d="M154.1,40.8v1.3h-8.3V27.8h1.5v13H154.1z"/>
	<path d="M156.9,42.2h-1.5l5.2-14.3h1.5l5.1,14.3h-1.5l-1.6-4.5h-5.6L156.9,42.2z M161.3,29.7L161.3,29.7l-2.4,6.8h4.7L161.3,29.7z"
		/>
	<path d="M172.7,42.2h-1.5v-13h-4.5v-1.3h10.4v1.3h-4.5V42.2z"/>
	<path d="M187.7,40.8v1.3h-8.4V27.8h8.4v1.3h-7v5h6.6v1.3h-6.6v5.3H187.7z"/>
	<path d="M189.7,38.4h1.5c0.1,0.8,0.4,1.4,1.1,2c0.6,0.5,1.5,0.8,2.7,0.8c1.1,0,1.9-0.2,2.6-0.7c0.6-0.5,1-1.2,1-2
		c0-0.7-0.2-1.2-0.6-1.6c-0.4-0.4-1.1-0.7-2-0.9l-2.4-0.6c-0.4-0.1-0.7-0.2-1-0.4c-0.3-0.1-0.6-0.3-0.9-0.5
		c-0.3-0.2-0.5-0.5-0.7-0.7s-0.4-0.6-0.5-0.9c-0.1-0.4-0.2-0.8-0.2-1.2c0-0.6,0.1-1.2,0.4-1.7c0.3-0.5,0.6-0.9,1.1-1.3
		s1-0.6,1.5-0.8c0.6-0.2,1.2-0.3,1.8-0.3c0.6,0,1.2,0.1,1.8,0.3s1.1,0.4,1.5,0.7s0.8,0.7,1.1,1.2s0.4,1.1,0.4,1.7h-1.5
		c-0.1-0.8-0.4-1.4-1-1.9c-0.6-0.5-1.4-0.7-2.4-0.7c-1,0-1.8,0.2-2.4,0.7c-0.6,0.5-0.9,1.1-0.9,1.9c0,1.2,0.7,2,2.2,2.4l2.3,0.6
		c1.2,0.3,2.2,0.8,2.8,1.4c0.6,0.6,1,1.4,1,2.5c0,0.9-0.2,1.7-0.7,2.3s-1.1,1.1-1.9,1.4c-0.8,0.3-1.7,0.5-2.6,0.5
		c-0.7,0-1.4-0.1-1.9-0.3s-1.1-0.4-1.4-0.7c-0.4-0.3-0.7-0.6-0.9-1c-0.3-0.4-0.4-0.7-0.6-1.1C189.8,39.1,189.7,38.8,189.7,38.4z"/>
</g>
</svg>
