<svg id="Layer_1" data-name="Layer 1" xmlns="http://www.w3.org/2000/svg" viewBox="0 0 213.01 29.99"><defs><style>.cls-1{fill:#147bd1;}</style></defs><title>LogSM</title><path class="cls-1" d="M34.32,46.29l-5.06-2.57a3.77,3.77,0,0,0,.21-1.25v-8a4.26,4.26,0,0,0-2.62-3.82L19.7,27.35a4.78,4.78,0,0,0-.75-.27V21.23a1.38,1.38,0,0,0-2.74,0V27a7.22,7.22,0,0,0-.89.31l-7.1,3.24A4.25,4.25,0,0,0,5.61,34.4v8.06a4,4,0,0,0,.2,1.24L.7,46.28a1.15,1.15,0,0,0-.52,1.66,1.39,1.39,0,0,0,1.19.62A1.44,1.44,0,0,0,2,48.4l5.28-2.66a4.61,4.61,0,0,0,.89.52l7.1,3.26a5.21,5.21,0,0,0,2.2.47,5.36,5.36,0,0,0,2.19-.47l7.15-3.26a5.19,5.19,0,0,0,.89-.52L33,48.4a1.48,1.48,0,0,0,.68.16,1.41,1.41,0,0,0,1.19-.62A1.14,1.14,0,0,0,34.32,46.29ZM9.47,44.11a1.83,1.83,0,0,1-1.12-1.64V34.72l7.86,3.48v9Zm16.14,0-6.67,3v-9l4-1.85a1.15,1.15,0,0,0,.59-1.63,1.45,1.45,0,0,0-1.84-.53l-4.24,1.94L9.77,32.64l6.8-3.11a2.31,2.31,0,0,1,1.88,0l7.15,3.25a1.83,1.83,0,0,1,1.13,1.64v8A1.79,1.79,0,0,1,25.61,44.11Z" transform="translate(0 -20.01)"/><path d="M60.86,41.31a3,3,0,0,0-1.19-2.44,10.41,10.41,0,0,0-4.23-1.65,14.68,14.68,0,0,1-5.73-2.39,4.79,4.79,0,0,1-2.06-3.95,5.06,5.06,0,0,1,2.22-4.17A9.28,9.28,0,0,1,55.62,25,9,9,0,0,1,61.67,27a5.48,5.48,0,0,1,2.17,4.45l0,.09h-3a3.82,3.82,0,0,0-1.34-3,5.76,5.76,0,0,0-3.86-1.16,5.75,5.75,0,0,0-3.59,1,3.06,3.06,0,0,0-1.25,2.54,2.74,2.74,0,0,0,1.35,2.32,13.44,13.44,0,0,0,4.39,1.63,13.12,13.12,0,0,1,5.57,2.46,5.09,5.09,0,0,1,1.91,4,4.81,4.81,0,0,1-2.29,4.15,10.28,10.28,0,0,1-6,1.57,11,11,0,0,1-6.13-1.74A5.1,5.1,0,0,1,47,40.6l0-.09h3a3.49,3.49,0,0,0,1.64,3.12,7.27,7.27,0,0,0,4,1.07,6.71,6.71,0,0,0,3.75-.92A2.8,2.8,0,0,0,60.86,41.31Z" transform="translate(0 -20.01)"/><path d="M84.24,27.63H76.8V46.68H73.67v-19H66.24V25.35h18Z" transform="translate(0 -20.01)"/><path d="M98.47,41.18h-9.7l-2.19,5.49h-3.2l9-21.33H95l8.81,21.33h-3.2Zm-8.73-2.42h7.79l-3.82-9.7h-.1Z" transform="translate(0 -20.01)"/><path d="M114.09,36.19l6-10.84h3.58l-8.13,13.83v7.5h-3.12V39l-8-13.64H108Z" transform="translate(0 -20.01)"/><path d="M129.54,25.35l8.54,18.82,8.57-18.82h2.61V46.68h-2V37.39l.16-9.52-8.62,18.81h-1.51l-8.59-18.74.16,9.39v9.35h-2V25.35Z" transform="translate(0 -20.01)"/><path d="M167.91,40.68H157.4l-2.39,6h-2l8.76-21.33h1.86l8.76,21.33h-2ZM158,39.17h9.29l-4.64-11.62Z" transform="translate(0 -20.01)"/><path d="M192.29,44.15a6.55,6.55,0,0,1-3.19,2.07,14.84,14.84,0,0,1-4.86.75,9.61,9.61,0,0,1-4.83-1.2,8.27,8.27,0,0,1-3.28-3.4,10.68,10.68,0,0,1-1.18-5v-2.7a9.78,9.78,0,0,1,2.43-7,8.59,8.59,0,0,1,6.54-2.57,9.19,9.19,0,0,1,5.76,1.68,6.76,6.76,0,0,1,2.59,4.62h-2a5.46,5.46,0,0,0-2.07-3.56,7.07,7.07,0,0,0-4.3-1.21,6.55,6.55,0,0,0-5.14,2.13,8.74,8.74,0,0,0-1.89,6v2.52a9.78,9.78,0,0,0,.9,4.3,6.74,6.74,0,0,0,2.58,2.9,7.28,7.28,0,0,0,3.86,1,11.53,11.53,0,0,0,4.34-.73,4.69,4.69,0,0,0,1.75-1.13V38.09h-6.22V36.57h8.17v7.58Z" transform="translate(0 -20.01)"/><path d="M198.71,45.15H213v1.52H196.35V45.31l13.74-18.44H196.76V25.35H212.5v1.28Z" transform="translate(0 -20.01)"/></svg>