<?xml version="1.0" encoding="utf-8"?>
<!-- Generator: Adobe Illustrator 19.0.0, SVG Export Plug-In . SVG Version: 6.00 Build 0)  -->
<svg version="1.1" id="Layer_1" xmlns="http://www.w3.org/2000/svg" xmlns:xlink="http://www.w3.org/1999/xlink" x="0px" y="0px"
	 viewBox="0 0 300 70" style="enable-background:new 0 0 300 70;" xml:space="preserve">
<style type="text/css">
	.st0{fill:none;}
	.st1{fill:#FF5A5F;}
	.st2{fill:#F97878;}
	.st3{fill:#555555;}
</style>
<g id="XMLID_5_">
	<polygon id="XMLID_6_" class="st0" points="31.5,33.1 24.9,29.8 18.7,34 18.7,34 18.7,34 18.7,34 18.7,34 12.5,29.8 5.9,33.1 
		18.7,40.2 	"/>
	<polygon id="XMLID_10_" class="st1" points="18.7,40.2 5.9,33.1 0,36 18.7,46.4 37.4,36 31.5,33.1 	"/>
	<polygon id="XMLID_11_" class="st2" points="24.9,23.6 18.7,27.7 12.5,23.6 0,29.8 0,36 5.9,33.1 12.5,29.8 18.7,34 18.7,34 
		18.7,34 18.7,34 18.7,34 24.9,29.8 31.5,33.1 37.4,36 37.4,29.8 	"/>
</g>
<g id="XMLID_2_">
	<path id="XMLID_3_" class="st3" d="M54,24.8l7.7,17.9h0.1l7.7-17.9h2.3v20.3H70v-9l0.1-8.9l-0.1,0l-7.7,17.9h-1.2l-7.7-17.8l-0.1,0
		l0.2,8.8v9h-1.7V24.8H54z"/>
	<path id="XMLID_7_" class="st3" d="M88.6,39.5h-9.5l-2.1,5.7h-1.8L83,24.8h1.6l7.9,20.3h-1.8L88.6,39.5z M79.6,38H88l-4.2-11h-0.1
		L79.6,38z"/>
	<path id="XMLID_12_" class="st3" d="M111,45.2h-1.7v-9.4H97.4v9.4h-1.7V24.8h1.7v9.5h11.9v-9.5h1.7V45.2z"/>
	<path id="XMLID_14_" class="st3" d="M127.9,39.5h-9.5l-2.1,5.7h-1.8l7.9-20.3h1.6l7.9,20.3H130L127.9,39.5z M118.9,38h8.4l-4.2-11
		h-0.1L118.9,38z"/>
	<path id="XMLID_17_" class="st3" d="M156.1,26.3h-7.2v18.9h-1.7V26.3H140v-1.4h16.1V26.3z"/>
	<path id="XMLID_19_" class="st3" d="M171.2,35.3h-10v8.4h11.5v1.4h-13.2V24.8h13.1v1.4h-11.4v7.6h10V35.3z"/>
	<path id="XMLID_21_" class="st3" d="M178.6,24.8l7.7,17.9h0.1l7.7-17.9h2.3v20.3h-1.7v-9l0.1-8.9l-0.1,0l-7.7,17.9h-1.2L178,27.4
		l-0.1,0l0.2,8.8v9h-1.7V24.8H178.6z"/>
	<path id="XMLID_23_" class="st3" d="M203.5,36.7v8.4h-1.7V24.8h7.2c2.2,0,3.9,0.5,5.1,1.6c1.2,1.1,1.8,2.5,1.8,4.3
		c0,1.8-0.6,3.2-1.8,4.3c-1.2,1.1-2.9,1.6-5.1,1.6H203.5z M203.5,35.3h5.5c1.7,0,3-0.4,3.9-1.3s1.3-1.9,1.3-3.2
		c0-1.3-0.4-2.4-1.3-3.2c-0.9-0.9-2.2-1.3-3.9-1.3h-5.5V35.3z"/>
	<path id="XMLID_26_" class="st3" d="M221.6,43.7H232v1.4h-12V24.8h1.7V43.7z"/>
	<path id="XMLID_28_" class="st3" d="M246.8,39.5h-9.5l-2.1,5.7h-1.8l7.9-20.3h1.6l7.9,20.3H249L246.8,39.5z M237.9,38h8.4l-4.2-11
		H242L237.9,38z"/>
	<path id="XMLID_31_" class="st3" d="M266.1,26.3h-7.2v18.9h-1.7V26.3H250v-1.4h16.1V26.3z"/>
	<path id="XMLID_33_" class="st3" d="M281.2,35.3h-10v8.4h11.5v1.4h-13.2V24.8h13.1v1.4h-11.4v7.6h10V35.3z"/>
	<path id="XMLID_35_" class="st3" d="M298.3,40.2c0-1.1-0.4-2-1.3-2.7c-0.8-0.7-2.3-1.3-4.4-1.9c-2.3-0.6-4-1.3-5.2-2.2
		c-1.2-0.9-1.8-2.1-1.8-3.6c0-1.6,0.7-2.8,2-3.8c1.3-1,3-1.5,5.1-1.5c2.1,0,3.9,0.6,5.2,1.7c1.3,1.2,2,2.6,1.9,4.3l0,0.1h-1.6
		c0-1.4-0.5-2.5-1.5-3.3c-1-0.9-2.3-1.3-4-1.3c-1.7,0-3,0.4-3.9,1.1c-0.9,0.7-1.4,1.6-1.4,2.7c0,1,0.4,1.9,1.3,2.6
		c0.9,0.7,2.4,1.3,4.5,1.8c2.2,0.6,3.9,1.3,5.1,2.3c1.2,0.9,1.8,2.2,1.8,3.8c0,1.6-0.7,2.9-2,3.9c-1.4,1-3.1,1.4-5.2,1.4
		c-2.1,0-3.9-0.5-5.4-1.5c-1.6-1-2.3-2.5-2.3-4.5l0-0.1h1.6c0,1.6,0.6,2.7,1.8,3.5c1.2,0.8,2.6,1.1,4.3,1.1c1.7,0,3-0.4,4-1.1
		C297.8,42.3,298.3,41.3,298.3,40.2z"/>
</g>
</svg>
