<?xml version="1.0" encoding="utf-8"?>
<!-- Generator: Adobe Illustrator 19.0.0, SVG Export Plug-In . SVG Version: 6.00 Build 0)  -->
<svg version="1.1" id="Layer_1" xmlns="http://www.w3.org/2000/svg" xmlns:xlink="http://www.w3.org/1999/xlink" x="0px" y="0px"
	 viewBox="0 0 200 200" style="enable-background:new 0 0 200 200;" xml:space="preserve">
<style type="text/css">
	.st0{fill:#FF5A5F;}
	.st1{fill:none;stroke:#FFFFFF;stroke-miterlimit:10;}
</style>
<rect id="XMLID_4_" class="st0" width="200" height="200"/>
<g id="XMLID_1_">
	<rect id="XMLID_8_" x="184.5" y="72.7" class="st1" width="0.4" height="32.8"/>
	<polygon id="XMLID_16_" class="st1" points="184.6,72.9 128.1,40.1 128.3,39.6 184.8,72.4 	"/>
	<polygon id="XMLID_3_" class="st1" points="15.4,105.7 15.2,105.2 71.7,72.4 71.9,72.9 	"/>
	<polygon id="XMLID_6_" class="st1" points="157.9,90.2 128.1,72.9 128.3,72.4 158.1,89.7 	"/>
	<polygon id="XMLID_10_" class="st1" points="100.1,127.6 99.9,127.1 184.6,72.4 184.8,72.9 	"/>
	<polygon id="XMLID_17_" class="st1" points="100.1,160.4 99.9,159.9 184.6,105.3 184.8,105.7 	"/>
	<polygon id="XMLID_12_" class="st1" points="15.4,72.9 15.2,72.4 71.7,39.6 71.9,40.1 	"/>
	<polygon id="XMLID_19_" class="st1" points="99.9,127.6 42,90.2 42.2,89.7 100.1,127.1 	"/>
	<polygon id="XMLID_2_" class="st1" points="99.9,160.4 15.2,105.7 15.4,105.3 100.1,159.9 	"/>
	<rect id="XMLID_11_" x="15.1" y="72.7" class="st1" width="0.4" height="32.8"/>
	<rect id="XMLID_20_" x="99.8" y="127.3" class="st1" width="0.4" height="32.8"/>
	<polygon id="XMLID_15_" class="st1" points="121.2,78.5 71.6,40.1 71.9,39.6 121.4,78 	"/>
	<polygon id="XMLID_7_" class="st1" points="99.9,94.7 71.6,72.9 71.9,72.5 100.1,94.3 	"/>
	<polygon id="XMLID_5_" class="st1" points="100.1,61.9 99.9,61.5 128.1,39.6 128.4,40.1 	"/>
	<polygon id="XMLID_9_" class="st1" points="121.2,78.4 121,78 128.1,72.5 128.4,72.9 	"/>
	<polygon id="XMLID_18_" class="st1" points="100.1,94.7 99.8,94.3 121.2,77.8 121.4,78.2 	"/>
</g>
</svg>
