<?xml version="1.0" encoding="utf-8"?>
<!-- Generator: Adobe Illustrator 19.0.0, SVG Export Plug-In . SVG Version: 6.00 Build 0)  -->
<svg version="1.1" id="Layer_1" xmlns="http://www.w3.org/2000/svg" xmlns:xlink="http://www.w3.org/1999/xlink" x="0px" y="0px"
	 viewBox="0 0 200 65" style="enable-background:new 0 0 200 65;" xml:space="preserve">
<style type="text/css">
	.st0{fill:#FFFFFF;}
</style>
<g id="XMLID_2_">
	<path id="XMLID_3_" class="st0" d="M2.6,20.3l9,21.6h0.1l9-21.6h2.7v24.5h-2V33.9l0.2-10.7l-0.1,0l-9.1,21.6H11L1.9,23.3l-0.1,0
		L2,33.9v10.8H0V20.3H2.6z"/>
	<path id="XMLID_5_" class="st0" d="M32.3,44.7h-2V20.3h2V44.7z"/>
	<path id="XMLID_7_" class="st0" d="M57.2,44.7h-2L41.3,23.7l-0.1,0v21h-2V20.3h2l13.9,21l0.1,0v-21h2V44.7z"/>
	<path id="XMLID_9_" class="st0" d="M77.1,37.9H65.8l-2.5,6.8h-2.1l9.3-24.5h1.9l9.2,24.5h-2.1L77.1,37.9z M66.5,36.1h9.9l-4.9-13.3
		h-0.1L66.5,36.1z"/>
	<path id="XMLID_12_" class="st0" d="M90.2,20.3l7,18.8h0.1l7.1-18.8h5.3v24.5h-4.1v-8.3l0.4-10.6l-0.1,0l-7.3,19h-2.7l-7.2-18.9
		l-0.1,0L89,36.4v8.3h-4.1V20.3H90.2z"/>
	<path id="XMLID_14_" class="st0" d="M128.3,39h-9.6l-2,5.7h-4.1l9-24.5h3.9l8.9,24.5h-4.2L128.3,39z M119.9,35.6h7.2l-3.5-10.5
		h-0.1L119.9,35.6z"/>
	<path id="XMLID_17_" class="st0" d="M155.5,41.4c-0.7,0.9-1.7,1.8-3.2,2.5c-1.5,0.8-3.4,1.1-5.7,1.1c-2.9,0-5.4-0.9-7.3-2.8
		c-1.9-1.9-2.9-4.3-2.9-7.2v-5.1c0-3,0.9-5.4,2.7-7.2c1.8-1.9,4.1-2.8,7-2.8c2.9,0,5.1,0.7,6.7,2.1c1.6,1.4,2.4,3.3,2.4,5.5l0,0.1
		h-3.9c-0.1-1.3-0.6-2.4-1.4-3.3c-0.9-0.8-2.1-1.2-3.8-1.2c-1.7,0-3.1,0.6-4.1,1.9c-1,1.3-1.6,2.9-1.6,4.8V35c0,2,0.6,3.6,1.7,4.9
		c1.1,1.3,2.6,1.9,4.4,1.9c1.3,0,2.3-0.1,3.1-0.4c0.8-0.3,1.4-0.6,1.7-1v-5h-4.9v-3.1h8.9V41.4z"/>
	<path id="XMLID_19_" class="st0" d="M164.2,41.5h12.8v3.3h-17.6v-2.6l12.3-18.6h-12.2v-3.3h17.1v2.5L164.2,41.5z"/>
</g>
</svg>
