<?xml version="1.0" encoding="utf-8"?>
<!-- Generator: Adobe Illustrator 19.0.0, SVG Export Plug-In . SVG Version: 6.00 Build 0)  -->
<svg version="1.1" id="Layer_1" xmlns="http://www.w3.org/2000/svg" xmlns:xlink="http://www.w3.org/1999/xlink" x="0px" y="0px"
	 viewBox="0 0 200 70" style="enable-background:new 0 0 200 70;" xml:space="preserve">
<style type="text/css">
	.st0{fill:#F97878;}
	.st1{fill:#FF5A5F;}
</style>
<g id="XMLID_1_">
	<polyline id="XMLID_18_" class="st0" points="21.2,49.5 42.5,36.3 42.5,28.4 21.2,41.6 	"/>
	<polyline id="XMLID_21_" class="st1" points="21.2,49.5 0,36.3 6.7,32.6 21.2,41.6 	"/>
	<polyline id="XMLID_6_" class="st1" points="0,36.3 14.2,28.4 14.2,28.4 21.2,33.7 26.6,29.8 14.2,20.5 0,28.4 	"/>
	<polyline id="XMLID_9_" class="st0" points="35.8,32.6 28.3,28.4 26.5,29.7 21.2,25.8 28.3,20.5 42.5,28.4 	"/>
</g>
<g id="XMLID_3_">
	<path id="XMLID_4_" d="M52.6,28.9l4.6,10.7h0.1l4.6-10.7h1.4v12.1h-1v-5.4l0.1-5.3l-0.1,0l-4.6,10.7h-0.7l-4.6-10.6l-0.1,0l0.1,5.3
		v5.4h-1V28.9H52.6z"/>
	<path id="XMLID_7_" d="M73.4,37.7h-5.7l-1.3,3.4h-1.1L70,28.9h1l4.7,12.1h-1.1L73.4,37.7z M68,36.8h5l-2.5-6.6h-0.1L68,36.8z"/>
	<path id="XMLID_11_" d="M86.8,41.1h-1v-5.6h-7.1v5.6h-1V28.9h1v5.7h7.1v-5.7h1V41.1z"/>
	<path id="XMLID_13_" d="M96.9,37.7h-5.7l-1.3,3.4h-1.1l4.7-12.1h1l4.7,12.1h-1.1L96.9,37.7z M91.5,36.8h5l-2.5-6.6H94L91.5,36.8z"
		/>
	<path id="XMLID_16_" d="M113.8,29.8h-4.3v11.3h-1V29.8h-4.3v-0.9h9.6V29.8z"/>
	<path id="XMLID_19_" d="M122.9,35.2h-6v5h6.9v0.9h-7.9V28.9h7.9v0.9h-6.8v4.6h6V35.2z"/>
	<path id="XMLID_22_" d="M127.3,28.9l4.6,10.7h0.1l4.6-10.7h1.4v12.1h-1v-5.4l0.1-5.3l-0.1,0l-4.6,10.7h-0.7l-4.6-10.6l-0.1,0
		l0.1,5.3v5.4h-1V28.9H127.3z"/>
	<path id="XMLID_24_" d="M142.2,36v5h-1V28.9h4.3c1.3,0,2.3,0.3,3,1c0.7,0.6,1.1,1.5,1.1,2.6c0,1.1-0.4,1.9-1.1,2.6
		c-0.7,0.6-1.7,1-3,1H142.2z M142.2,35.2h3.3c1,0,1.8-0.3,2.3-0.8c0.5-0.5,0.8-1.1,0.8-1.9c0-0.8-0.3-1.4-0.8-1.9
		c-0.5-0.5-1.3-0.8-2.3-0.8h-3.3V35.2z"/>
	<path id="XMLID_27_" d="M153.1,40.2h6.2v0.9H152V28.9h1V40.2z"/>
	<path id="XMLID_29_" d="M168.2,37.7h-5.7l-1.3,3.4h-1.1l4.7-12.1h1l4.7,12.1h-1.1L168.2,37.7z M162.8,36.8h5l-2.5-6.6h-0.1
		L162.8,36.8z"/>
	<path id="XMLID_32_" d="M179.7,29.8h-4.3v11.3h-1V29.8h-4.3v-0.9h9.6V29.8z"/>
	<path id="XMLID_34_" d="M188.7,35.2h-6v5h6.9v0.9h-7.9V28.9h7.9v0.9h-6.8v4.6h6V35.2z"/>
	<path id="XMLID_36_" d="M199,38.1c0-0.7-0.3-1.2-0.8-1.6c-0.5-0.4-1.4-0.8-2.7-1.1c-1.4-0.3-2.4-0.8-3.1-1.3
		c-0.7-0.5-1.1-1.3-1.1-2.2c0-0.9,0.4-1.7,1.2-2.3c0.8-0.6,1.8-0.9,3-0.9c1.3,0,2.3,0.3,3.1,1c0.8,0.7,1.2,1.5,1.1,2.5l0,0h-0.9
		c0-0.8-0.3-1.5-0.9-2c-0.6-0.5-1.4-0.8-2.4-0.8c-1,0-1.8,0.2-2.3,0.6c-0.6,0.4-0.8,1-0.8,1.6c0,0.6,0.3,1.1,0.8,1.5
		c0.5,0.4,1.4,0.8,2.7,1.1c1.3,0.3,2.4,0.8,3.1,1.4s1,1.3,1,2.2c0,1-0.4,1.7-1.2,2.3s-1.9,0.9-3.1,0.9c-1.2,0-2.3-0.3-3.3-0.9
		c-0.9-0.6-1.4-1.5-1.4-2.7l0,0h0.9c0,0.9,0.4,1.6,1.1,2.1c0.7,0.5,1.6,0.7,2.6,0.7c1,0,1.8-0.2,2.4-0.6
		C198.7,39.3,199,38.8,199,38.1z"/>
</g>
</svg>
