<?xml version="1.0" encoding="utf-8"?>
<!-- Generator: Adobe Illustrator 19.0.0, SVG Export Plug-In . SVG Version: 6.00 Build 0)  -->
<svg version="1.1" id="Layer_1" xmlns="http://www.w3.org/2000/svg" xmlns:xlink="http://www.w3.org/1999/xlink" x="0px" y="0px"
	 viewBox="0 0 300 70" style="enable-background:new 0 0 300 70;" xml:space="preserve">
<style type="text/css">
	.st0{fill:#FF5A5F;}
	.st1{fill:#ED4A8E;}
	.st2{fill:#BF54B6;}
</style>
<g id="XMLID_4_">
	<path id="XMLID_19_" d="M38.1,26.7l6.4,14.5h0.1l6.4-14.5h1.9v16.5h-1.4V36l0.1-7.2l-0.1,0L45,43.3h-1l-6.4-14.5l-0.1,0l0.1,7.2
		v7.3h-1.4V26.7H38.1z"/>
	<path id="XMLID_21_" d="M66.9,38.7h-7.9l-1.8,4.6h-1.5l6.6-16.5h1.3l6.5,16.5h-1.5L66.9,38.7z M59.4,37.4h7L63,28.5h-0.1L59.4,37.4
		z"/>
	<path id="XMLID_24_" d="M85.5,43.3h-1.4v-7.6h-9.9v7.6h-1.4V26.7h1.4v7.8h9.9v-7.8h1.4V43.3z"/>
	<path id="XMLID_26_" d="M99.6,38.7h-7.9l-1.8,4.6h-1.5L95,26.7h1.3l6.5,16.5h-1.5L99.6,38.7z M92.1,37.4h7l-3.5-8.9h-0.1L92.1,37.4
		z"/>
	<path id="XMLID_29_" d="M123.1,27.9h-6v15.4h-1.4V27.9h-6v-1.2h13.4V27.9z"/>
	<path id="XMLID_31_" d="M135.6,35.3h-8.3v6.8h9.6v1.2h-11V26.7h10.9v1.2h-9.5v6.2h8.3V35.3z"/>
	<path id="XMLID_33_" d="M141.8,26.7l6.4,14.5h0.1l6.4-14.5h1.9v16.5h-1.4V36l0.1-7.2l-0.1,0l-6.4,14.5h-1l-6.4-14.5l-0.1,0l0.1,7.2
		v7.3h-1.4V26.7H141.8z"/>
	<path id="XMLID_35_" d="M162.5,36.4v6.9h-1.4V26.7h6c1.8,0,3.2,0.4,4.2,1.3c1,0.9,1.5,2,1.5,3.5c0,1.5-0.5,2.6-1.5,3.5
		c-1,0.9-2.4,1.3-4.2,1.3H162.5z M162.5,35.2h4.5c1.4,0,2.5-0.3,3.2-1c0.7-0.7,1.1-1.6,1.1-2.6c0-1.1-0.4-1.9-1.1-2.6
		c-0.7-0.7-1.8-1-3.2-1h-4.5V35.2z"/>
	<path id="XMLID_38_" d="M177.6,42.1h8.6v1.2h-10V26.7h1.4V42.1z"/>
	<path id="XMLID_40_" d="M198.5,38.7h-7.9l-1.8,4.6h-1.5l6.6-16.5h1.3l6.5,16.5h-1.5L198.5,38.7z M191.1,37.4h7l-3.5-8.9h-0.1
		L191.1,37.4z"/>
	<path id="XMLID_43_" d="M214.5,27.9h-6v15.4h-1.4V27.9h-6v-1.2h13.4V27.9z"/>
	<path id="XMLID_45_" d="M227.1,35.3h-8.3v6.8h9.6v1.2h-11V26.7h10.9v1.2h-9.5v6.2h8.3V35.3z"/>
	<path id="XMLID_47_" d="M241.3,39.2c0-0.9-0.4-1.6-1.1-2.2c-0.7-0.6-1.9-1.1-3.7-1.5c-1.9-0.5-3.3-1-4.3-1.8
		c-1-0.7-1.5-1.7-1.5-2.9c0-1.3,0.5-2.3,1.6-3.1c1.1-0.8,2.5-1.2,4.2-1.2c1.8,0,3.2,0.5,4.3,1.4c1.1,0.9,1.6,2.1,1.6,3.5l0,0.1h-1.3
		c0-1.1-0.4-2-1.2-2.7c-0.8-0.7-1.9-1.1-3.3-1.1c-1.4,0-2.5,0.3-3.3,0.9c-0.8,0.6-1.2,1.3-1.2,2.2c0,0.8,0.4,1.5,1.1,2.1
		c0.7,0.6,2,1,3.7,1.5c1.9,0.5,3.3,1.1,4.3,1.8c1,0.8,1.5,1.8,1.5,3.1c0,1.3-0.6,2.4-1.7,3.1c-1.1,0.8-2.6,1.2-4.3,1.2
		c-1.7,0-3.2-0.4-4.5-1.2c-1.3-0.8-1.9-2-1.9-3.6l0-0.1h1.3c0,1.3,0.5,2.2,1.5,2.9c1,0.6,2.2,0.9,3.6,0.9c1.4,0,2.5-0.3,3.3-0.9
		C240.9,40.9,241.3,40.1,241.3,39.2z"/>
</g>
<g id="XMLID_1_">
	<polyline id="XMLID_5_" class="st0" points="0,35.8 13.5,43.5 26.9,35.8 26.9,31.1 13.5,38.9 4.3,33.6 	"/>
	<polyline id="XMLID_2_" class="st1" points="0,35.8 9,31.1 9,31.1 13.5,34.2 16.8,31.9 9,26.5 0,31.1 	"/>
	<polyline id="XMLID_6_" class="st2" points="22.7,33.6 17.9,31.1 16.8,31.9 13.5,29.6 17.9,26.5 26.9,31.1 	"/>
</g>
</svg>
