<?xml version="1.0" encoding="utf-8"?>
<!-- Generator: Adobe Illustrator 19.0.0, SVG Export Plug-In . SVG Version: 6.00 Build 0)  -->
<svg version="1.1" id="Layer_1" xmlns="http://www.w3.org/2000/svg" xmlns:xlink="http://www.w3.org/1999/xlink" x="0px" y="0px"
	 viewBox="0 0 300 70" style="enable-background:new 0 0 300 70;" xml:space="preserve">
<style type="text/css">
	.st0{fill:#FF5A5F;}
</style>
<g id="XMLID_1_">
	<g id="XMLID_9_">
		<rect id="XMLID_5_" x="43.4" y="28.8" class="st0" width="0.3" height="7.5"/>
		
			<rect id="XMLID_7_" x="28.2" y="24.9" transform="matrix(0.8884 0.459 -0.459 0.8884 15.5429 -13.8913)" class="st0" width="16.3" height="0.3"/>
		
			<rect id="XMLID_16_" x="7.2" y="24.3" transform="matrix(0.4584 0.8887 -0.8887 0.4584 32.8934 11.0344)" class="st0" width="0.3" height="16.3"/>
		
			<rect id="XMLID_17_" x="28.6" y="30.6" transform="matrix(0.8884 0.459 -0.459 0.8884 17.7819 -11.6805)" class="st0" width="8.6" height="0.3"/>
		
			<rect id="XMLID_18_" x="32.6" y="22.5" transform="matrix(0.4979 0.8672 -0.8672 0.4979 46.7866 -10.8057)" class="st0" width="0.3" height="25"/>
		
			<rect id="XMLID_15_" x="32.6" y="30" transform="matrix(0.4979 0.8672 -0.8672 0.4979 53.2754 -7.0488)" class="st0" width="0.3" height="25"/>
		
			<rect id="XMLID_14_" x="7.2" y="16.9" transform="matrix(0.459 0.8885 -0.8885 0.459 26.2285 6.9797)" class="st0" width="0.3" height="16.3"/>
		
			<rect id="XMLID_13_" x="5.9" y="36.8" transform="matrix(0.8672 0.4979 -0.4979 0.8672 20.3237 -2.2787)" class="st0" width="17.1" height="0.3"/>
		
			<rect id="XMLID_3_" x="-1.5" y="42.3" transform="matrix(0.8672 0.4979 -0.4979 0.8672 22.6126 0.1614)" class="st0" width="25" height="0.3"/>
		<rect id="XMLID_10_" y="28.8" class="st0" width="0.3" height="7.5"/>
		<rect id="XMLID_2_" x="21.7" y="41.2" class="st0" width="0.3" height="7.5"/>
		
			<rect id="XMLID_6_" x="13.3" y="25.5" transform="matrix(0.8235 0.5673 -0.5673 0.8235 18.2613 -7.372)" class="st0" width="15.4" height="0.3"/>
		
			<rect id="XMLID_8_" x="13.8" y="31.1" transform="matrix(0.8235 0.5673 -0.5673 0.8235 20.9549 -4.8327)" class="st0" width="8.8" height="0.3"/>
		
			<rect id="XMLID_11_" x="25.3" y="19.4" transform="matrix(0.5674 0.8234 -0.8234 0.5674 30.6051 -10.6985)" class="st0" width="0.3" height="8.8"/>
		
			<rect id="XMLID_12_" x="25.3" y="26.9" transform="matrix(0.5674 0.8234 -0.8234 0.5674 36.7663 -7.4616)" class="st0" width="0.3" height="8.8"/>
	</g>
	<g id="XMLID_4_">
		<path id="XMLID_19_" d="M54.8,26.5l6.5,14.9h0.1l6.5-14.9h1.9v16.9h-1.5V36l0.1-7.4l-0.1,0l-6.6,14.9h-1l-6.6-14.8l-0.1,0l0.1,7.3
			v7.5h-1.5V26.5H54.8z"/>
		<path id="XMLID_21_" d="M84.2,38.7h-8.1l-1.8,4.7h-1.5l6.7-16.9h1.4l6.7,16.9h-1.5L84.2,38.7z M76.6,37.5h7.2l-3.5-9.2h-0.1
			L76.6,37.5z"/>
		<path id="XMLID_24_" d="M103.3,43.5h-1.5v-7.8H91.7v7.8h-1.5V26.5h1.5v7.9h10.1v-7.9h1.5V43.5z"/>
		<path id="XMLID_26_" d="M117.7,38.7h-8.1l-1.8,4.7h-1.5l6.7-16.9h1.4l6.7,16.9h-1.5L117.7,38.7z M110,37.5h7.2l-3.5-9.2h-0.1
			L110,37.5z"/>
		<path id="XMLID_29_" d="M141.7,27.7h-6.1v15.7h-1.5V27.7H128v-1.2h13.7V27.7z"/>
		<path id="XMLID_31_" d="M154.6,35.3h-8.5v7h9.8v1.2h-11.2V26.5h11.2v1.2h-9.7v6.4h8.5V35.3z"/>
		<path id="XMLID_33_" d="M160.9,26.5l6.5,14.9h0.1l6.5-14.9h1.9v16.9h-1.5V36l0.1-7.4l-0.1,0L168,43.5h-1l-6.6-14.8l-0.1,0l0.1,7.3
			v7.5H159V26.5H160.9z"/>
		<path id="XMLID_35_" d="M182.1,36.4v7h-1.5V26.5h6.1c1.9,0,3.3,0.5,4.3,1.4c1,0.9,1.5,2.1,1.5,3.6c0,1.5-0.5,2.7-1.5,3.6
			c-1,0.9-2.5,1.3-4.3,1.3H182.1z M182.1,35.2h4.7c1.5,0,2.6-0.4,3.3-1.1s1.1-1.6,1.1-2.7c0-1.1-0.4-2-1.1-2.7
			c-0.7-0.7-1.8-1.1-3.3-1.1h-4.7V35.2z"/>
		<path id="XMLID_38_" d="M197.5,42.3h8.8v1.2h-10.2V26.5h1.5V42.3z"/>
		<path id="XMLID_40_" d="M219,38.7h-8.1l-1.8,4.7h-1.5l6.7-16.9h1.4l6.7,16.9h-1.5L219,38.7z M211.3,37.5h7.2l-3.5-9.2h-0.1
			L211.3,37.5z"/>
		<path id="XMLID_43_" d="M235.4,27.7h-6.1v15.7h-1.5V27.7h-6.1v-1.2h13.7V27.7z"/>
		<path id="XMLID_45_" d="M248.3,35.3h-8.5v7h9.8v1.2h-11.2V26.5h11.2v1.2h-9.7v6.4h8.5V35.3z"/>
		<path id="XMLID_47_" d="M262.8,39.3c0-0.9-0.4-1.7-1.1-2.3c-0.7-0.6-2-1.1-3.8-1.5c-1.9-0.5-3.4-1.1-4.4-1.8c-1-0.7-1.5-1.7-1.5-3
			c0-1.3,0.6-2.3,1.7-3.2c1.1-0.8,2.6-1.2,4.3-1.2c1.8,0,3.3,0.5,4.4,1.5s1.7,2.1,1.6,3.5l0,0.1h-1.3c0-1.1-0.4-2.1-1.3-2.8
			c-0.8-0.7-2-1.1-3.4-1.1c-1.4,0-2.5,0.3-3.3,0.9c-0.8,0.6-1.2,1.4-1.2,2.3c0,0.9,0.4,1.6,1.1,2.1c0.7,0.6,2,1.1,3.8,1.5
			c1.9,0.5,3.4,1.1,4.4,1.9c1,0.8,1.5,1.8,1.5,3.1c0,1.3-0.6,2.4-1.7,3.2c-1.2,0.8-2.6,1.2-4.4,1.2c-1.8,0-3.3-0.4-4.6-1.3
			c-1.3-0.8-2-2.1-1.9-3.7l0-0.1h1.3c0,1.3,0.5,2.3,1.5,2.9c1,0.6,2.2,0.9,3.6,0.9c1.4,0,2.5-0.3,3.4-0.9S262.8,40.3,262.8,39.3z"/>
	</g>
</g>
</svg>
