<?xml version="1.0" encoding="utf-8"?>
<!-- Generator: Adobe Illustrator 23.0.0, SVG Export Plug-In . SVG Version: 6.00 Build 0)  -->
<svg version="1.1" id="Layer_1" xmlns="http://www.w3.org/2000/svg" xmlns:xlink="http://www.w3.org/1999/xlink" x="0px" y="0px"
	 viewBox="0 0 500 65" style="enable-background:new 0 0 500 65;" xml:space="preserve">
<style type="text/css">
	.st0{fill-rule:evenodd;clip-rule:evenodd;fill:#226A7C;}
	.st1{clip-path:url(#SVGID_1_);}
	.st2{fill:#231F20;}
	.st3{clip-path:url(#SVGID_2_);}
	.st4{clip-path:url(#SVGID_3_);}
	.st5{fill-rule:evenodd;clip-rule:evenodd;fill:#EE7A2A;}
	.st6{clip-path:url(#SVGID_4_);}
	.st7{fill-rule:evenodd;clip-rule:evenodd;fill:#FFFFFF;}
	.st8{clip-path:url(#SVGID_5_);}
	.st9{clip-path:url(#XMLID_11_);}
	.st10{clip-path:url(#XMLID_17_);}
	.st11{clip-path:url(#XMLID_18_);}
	.st12{fill:#253B80;}
	.st13{fill:#179BD7;}
	.st14{fill:#222D65;}
	.st15{clip-path:url(#XMLID_22_);}
	.st16{clip-path:url(#XMLID_23_);}
</style>
<g>
	<path class="st0" d="M134.16,0.14h13.76l33.54,45.15c0,0,0-34.4,0-38.27c0-3.87-5.3-6.74-5.3-6.74h17.2c0,0-4.51,2.58-4.51,6.67
		c0,4.09,0,58.05,0,58.05s-7.95-3.23-13.97-11.39c-6.02-8.17-28.59-37.62-28.59-37.62s0,36.98,0,39.77c0,2.8,4.73,6.24,4.73,6.24
		h-16.98c0,0,4.73-2.58,4.73-6.02c0-3.44,0-43.21,0-48.37S134.16,0.14,134.16,0.14z"/>
	<g>
		<defs>
			<path id="SVGID_11_" d="M134.16,0.14h13.76l33.54,45.15c0,0,0-34.4,0-38.27c0-3.87-5.3-6.74-5.3-6.74h17.2
				c0,0-4.51,2.58-4.51,6.67c0,4.09,0,58.05,0,58.05s-7.95-3.23-13.97-11.39c-6.02-8.17-28.59-37.62-28.59-37.62s0,36.98,0,39.77
				c0,2.8,4.73,6.24,4.73,6.24h-16.98c0,0,4.73-2.58,4.73-6.02c0-3.44,0-43.21,0-48.37S134.16,0.14,134.16,0.14z"/>
		</defs>
		<clipPath id="SVGID_1_">
			<use xlink:href="#SVGID_11_"  style="overflow:visible;"/>
		</clipPath>
	</g>
	<path class="st0" d="M207.97,45.29V7.02c0-3.87-5.3-6.74-5.3-6.74h20.14c0,0-4.51,2.58-4.51,6.67V54.9c0,3.66,4.3,6.45,4.3,6.45
		l-19.35,0.21c0,0,4.73-2.94,4.73-5.95C207.97,52.6,207.97,45.29,207.97,45.29z"/>
	<g>
		<defs>
			<path id="SVGID_13_" d="M207.97,45.29V7.02c0-3.87-5.3-6.74-5.3-6.74h20.14c0,0-4.51,2.58-4.51,6.67V54.9
				c0,3.66,4.3,6.45,4.3,6.45l-19.35,0.21c0,0,4.73-2.94,4.73-5.95C207.97,52.6,207.97,45.29,207.97,45.29z"/>
		</defs>
		<clipPath id="SVGID_2_">
			<use xlink:href="#SVGID_13_"  style="overflow:visible;"/>
		</clipPath>
	</g>
	<path class="st0" d="M92.45,6.16v18.49h8.81c4.08,0,9.89-2.15,9.89-9.67c0-7.53-8.6-8.81-11.61-8.81H92.45L92.45,6.16z
		 M92.45,30.67v24.08h11.61c4.52,0,12.9-3.87,12.9-11.39c0-7.53-6.88-12.68-13.33-12.68H92.45L92.45,30.67z M77.47,0.07h29.67
		c6.66,0,14.33,5.66,14.33,13.4c0,10.53-8.1,11.97-8.1,11.97s14.19,3.44,14.19,16.98c0,13.55-15.48,18.7-20.64,18.7H77.04
		c0,0,5.16-2.79,5.16-7.31V7.38C82.2,2.65,77.47,0.07,77.47,0.07z"/>
	<g>
		<defs>
			<path id="SVGID_15_" d="M92.45,6.16v18.49h8.81c4.08,0,9.89-2.15,9.89-9.67c0-7.53-8.6-8.81-11.61-8.81H92.45L92.45,6.16z
				 M92.45,30.67v24.08h11.61c4.52,0,12.9-3.87,12.9-11.39c0-7.53-6.88-12.68-13.33-12.68H92.45L92.45,30.67z M77.47,0.07h29.67
				c6.66,0,14.33,5.66,14.33,13.4c0,10.53-8.1,11.97-8.1,11.97s14.19,3.44,14.19,16.98c0,13.55-15.48,18.7-20.64,18.7H77.04
				c0,0,5.16-2.79,5.16-7.31V7.38C82.2,2.65,77.47,0.07,77.47,0.07z"/>
		</defs>
		<clipPath id="SVGID_3_">
			<use xlink:href="#SVGID_15_"  style="overflow:visible;"/>
		</clipPath>
	</g>
	<rect class="st5" width="61.49" height="61.49"/>
	<g>
		<defs>
			<rect id="SVGID_17_" width="61.49" height="61.49"/>
		</defs>
		<clipPath id="SVGID_4_">
			<use xlink:href="#SVGID_17_"  style="overflow:visible;"/>
		</clipPath>
	</g>
	<path class="st7" d="M19.78,0h7.74c0,0-1.29,3.87,0,12.04c1.29,8.17,7.74,14.19,7.74,14.19s-2.15-5.16,6.45-14.19
		c8.6-9.03,19.78-3.44,19.78-3.44v10.75c0,0-7.74-9.89-15.91-5.16c-6.01,3.48-9.46,8.6-1.72,21.07C51.6,47.73,61.49,43,61.49,43
		v3.01c0,0-4.3,3.87-12.9,2.58c-5.35-0.8-9.67-4.25-14.37-9.78l-7.53,6.02c4.74,5.7,8.56,9.86,9.86,10.64
		c4.3,2.58,7.31,2.58,7.31,2.58l-4.3,3.44h-9.89c0,0,0.86-2.15-0.86-3.87c-1.72-1.72-7.17-8.89-7.17-8.89L6.02,61.49H0.25
		l18.67-15.48L0,22.79V11.18c0,0,13.76,17.73,24.46,30.76l7.4-6.04c-2.06-2.62-4.55-6.09-6.92-9.25C15.91,14.62,19.78,0,19.78,0z"/>
	<g>
		<defs>
			<path id="SVGID_19_" d="M19.78,0h7.74c0,0-1.29,3.87,0,12.04c1.29,8.17,7.74,14.19,7.74,14.19s-2.15-5.16,6.45-14.19
				c8.6-9.03,19.78-3.44,19.78-3.44v10.75c0,0-7.74-9.89-15.91-5.16c-6.01,3.48-9.46,8.6-1.72,21.07C51.6,47.73,61.49,43,61.49,43
				v3.01c0,0-4.3,3.87-12.9,2.58c-5.35-0.8-9.67-4.25-14.37-9.78l-7.53,6.02c4.74,5.7,8.56,9.86,9.86,10.64
				c4.3,2.58,7.31,2.58,7.31,2.58l-4.3,3.44h-9.89c0,0,0.86-2.15-0.86-3.87c-1.72-1.72-7.17-8.89-7.17-8.89L6.02,61.49H0.25
				l18.67-15.48L0,22.79V11.18c0,0,13.76,17.73,24.46,30.76l7.4-6.04c-2.06-2.62-4.55-6.09-6.92-9.25C15.91,14.62,19.78,0,19.78,0z"
				/>
		</defs>
		<clipPath id="SVGID_5_">
			<use xlink:href="#SVGID_19_"  style="overflow:visible;"/>
		</clipPath>
	</g>
</g>
<g id="XMLID_4_">
	<g id="XMLID_87_">
		<g id="XMLID_88_">
			<defs>
				<rect id="XMLID_52_" x="255.76" y="2" width="244.24" height="65"/>
			</defs>
			<clipPath id="XMLID_9_">
				<use xlink:href="#XMLID_52_"  style="overflow:visible;"/>
			</clipPath>
		</g>
	</g>
	<g id="XMLID_82_">
		<g id="XMLID_83_">
			<defs>
				<rect id="XMLID_50_" x="255.76" y="2" width="244.24" height="65"/>
			</defs>
			<clipPath id="XMLID_11_">
				<use xlink:href="#XMLID_50_"  style="overflow:visible;"/>
			</clipPath>
			<g id="XMLID_85_" class="st9">
				<defs>
					<rect id="XMLID_51_" x="255.76" y="2" width="244.24" height="65"/>
				</defs>
				<clipPath id="XMLID_16_">
					<use xlink:href="#XMLID_51_"  style="overflow:visible;"/>
				</clipPath>
			</g>
		</g>
	</g>
	<g id="XMLID_75_">
		<g id="XMLID_76_">
			<defs>
				<rect id="XMLID_47_" x="255.76" y="2" width="244.24" height="65"/>
			</defs>
			<clipPath id="XMLID_17_">
				<use xlink:href="#XMLID_47_"  style="overflow:visible;"/>
			</clipPath>
			<g id="XMLID_78_" class="st10">
				<defs>
					<rect id="XMLID_48_" x="255.76" y="2" width="244.24" height="65"/>
				</defs>
				<clipPath id="XMLID_18_">
					<use xlink:href="#XMLID_48_"  style="overflow:visible;"/>
				</clipPath>
				<g id="XMLID_80_" class="st11">
					<defs>
						<rect id="XMLID_49_" x="255.76" y="2" width="244.24" height="65"/>
					</defs>
					<clipPath id="XMLID_19_">
						<use xlink:href="#XMLID_49_"  style="overflow:visible;"/>
					</clipPath>
				</g>
			</g>
		</g>
	</g>
	<g id="XMLID_72_">
		<g id="XMLID_73_">
			<defs>
				<rect id="XMLID_46_" x="255.76" y="2" width="244.24" height="65"/>
			</defs>
			<clipPath id="XMLID_20_">
				<use xlink:href="#XMLID_46_"  style="overflow:visible;"/>
			</clipPath>
		</g>
	</g>
	<g id="XMLID_12_">
		<g id="XMLID_13_">
			<g id="XMLID_14_">
				<g id="XMLID_15_">
					<path id="XMLID_57_" class="st12" d="M348.33,27.91c-0.74,4.83-4.43,4.83-8,4.83h-2.03l1.43-9.03
						c0.08-0.55,0.56-0.95,1.11-0.95h0.93c2.43,0,4.73,0,5.91,1.39C348.39,24.98,348.6,26.21,348.33,27.91z M346.78,15.29h-13.47
						c-0.92,0-1.71,0.67-1.85,1.58l-5.45,34.54c-0.11,0.68,0.42,1.3,1.11,1.3h6.43c0.92,0,1.71-0.67,1.85-1.58l1.47-9.32
						c0.14-0.91,0.93-1.58,1.85-1.58h4.26c8.87,0,13.99-4.29,15.33-12.8c0.6-3.72,0.03-6.65-1.72-8.7
						C354.68,16.48,351.29,15.29,346.78,15.29z"/>
					<path id="XMLID_54_" class="st12" d="M378.05,40.31c-0.62,3.69-3.55,6.16-7.28,6.16c-1.87,0-3.37-0.6-4.33-1.74
						c-0.95-1.13-1.32-2.74-1.01-4.53c0.58-3.65,3.56-6.21,7.23-6.21c1.83,0,3.32,0.61,4.3,1.76
						C377.95,36.9,378.34,38.52,378.05,40.31z M387.05,27.75h-6.45c-0.55,0-1.02,0.4-1.11,0.95l-0.29,1.8l-0.45-0.65
						c-1.4-2.03-4.51-2.7-7.62-2.7c-7.13,0-13.22,5.4-14.4,12.97c-0.62,3.78,0.26,7.39,2.4,9.91c1.97,2.32,4.78,3.28,8.13,3.28
						c5.74,0,8.93-3.69,8.93-3.69l-0.29,1.79c-0.11,0.69,0.42,1.3,1.11,1.3h5.81c0.92,0,1.7-0.67,1.85-1.58l3.49-22.08
						C388.26,28.37,387.74,27.75,387.05,27.75z"/>
					<path id="XMLID_33_" class="st12" d="M421.4,27.75h-6.48c-0.62,0-1.2,0.31-1.55,0.82l-8.94,13.17l-3.79-12.66
						c-0.24-0.79-0.97-1.34-1.8-1.34h-6.37c-0.77,0-1.31,0.76-1.07,1.49l7.14,20.95l-6.71,9.48c-0.53,0.75,0,1.77,0.92,1.77h6.47
						c0.61,0,1.19-0.3,1.54-0.8l21.56-31.12C422.84,28.77,422.31,27.75,421.4,27.75z"/>
					<path id="XMLID_38_" class="st13" d="M444.42,27.91c-0.73,4.83-4.43,4.83-8,4.83h-2.03l1.43-9.03
						c0.08-0.55,0.55-0.95,1.11-0.95h0.93c2.43,0,4.73,0,5.91,1.39C444.47,24.98,444.69,26.21,444.42,27.91z M442.86,15.29h-13.47
						c-0.92,0-1.7,0.67-1.85,1.58l-5.45,34.54c-0.11,0.68,0.42,1.3,1.11,1.3h6.91c0.64,0,1.19-0.47,1.29-1.11l1.55-9.79
						c0.14-0.91,0.93-1.58,1.85-1.58h4.26c8.88,0,13.99-4.29,15.33-12.8c0.6-3.72,0.02-6.65-1.72-8.7
						C450.77,16.48,447.37,15.29,442.86,15.29z"/>
					<path id="XMLID_21_" class="st13" d="M474.14,40.31c-0.62,3.69-3.55,6.16-7.28,6.16c-1.87,0-3.37-0.6-4.33-1.74
						c-0.95-1.13-1.31-2.74-1.01-4.53c0.58-3.65,3.56-6.21,7.23-6.21c1.83,0,3.32,0.61,4.3,1.76
						C474.03,36.9,474.42,38.52,474.14,40.31z M483.13,27.75h-6.45c-0.55,0-1.02,0.4-1.11,0.95l-0.29,1.8l-0.45-0.65
						c-1.4-2.03-4.51-2.7-7.62-2.7c-7.13,0-13.21,5.4-14.4,12.97c-0.61,3.78,0.26,7.39,2.4,9.91c1.97,2.32,4.78,3.28,8.12,3.28
						c5.74,0,8.93-3.69,8.93-3.69l-0.29,1.79c-0.11,0.69,0.42,1.3,1.11,1.3h5.81c0.92,0,1.7-0.67,1.85-1.58l3.49-22.08
						C484.35,28.37,483.82,27.75,483.13,27.75z"/>
					<path id="XMLID_28_" class="st13" d="M490.73,16.24l-5.53,35.17c-0.11,0.68,0.42,1.3,1.11,1.3h5.56c0.92,0,1.71-0.67,1.85-1.58
						l5.45-34.54c0.11-0.68-0.42-1.3-1.11-1.3h-6.22C491.29,15.29,490.82,15.7,490.73,16.24z"/>
					<path id="XMLID_27_" class="st12" d="M270.07,59.42l1.03-6.54l-2.29-0.05h-10.96l7.61-48.28c0.02-0.15,0.1-0.28,0.21-0.38
						c0.11-0.1,0.26-0.15,0.41-0.15h18.48c6.13,0,10.37,1.28,12.58,3.8c1.04,1.18,1.7,2.42,2.01,3.78c0.33,1.43,0.34,3.13,0.01,5.21
						l-0.02,0.15v1.33l1.04,0.59c0.87,0.46,1.57,0.99,2.1,1.6c0.89,1.01,1.46,2.29,1.7,3.82c0.25,1.57,0.17,3.43-0.24,5.54
						c-0.47,2.43-1.24,4.54-2.27,6.27c-0.95,1.59-2.16,2.92-3.59,3.94c-1.37,0.97-3,1.71-4.84,2.18c-1.78,0.46-3.82,0.7-6.05,0.7
						h-1.44c-1.03,0-2.03,0.37-2.81,1.03c-0.79,0.68-1.31,1.6-1.47,2.62l-0.11,0.59l-1.82,11.53l-0.08,0.42
						c-0.02,0.13-0.06,0.2-0.11,0.25c-0.05,0.04-0.12,0.07-0.19,0.07H270.07z"/>
					<path id="XMLID_26_" class="st13" d="M301.16,17.1c-0.06,0.35-0.12,0.71-0.19,1.08c-2.44,12.51-10.77,16.83-21.42,16.83h-5.42
						c-1.3,0-2.4,0.95-2.6,2.23l-2.78,17.6l-0.79,4.99c-0.13,0.84,0.52,1.6,1.37,1.6h9.61c1.14,0,2.11-0.83,2.28-1.95l0.09-0.49
						l1.81-11.49l0.12-0.63c0.18-1.13,1.15-1.95,2.28-1.95h1.44c9.31,0,16.61-3.78,18.74-14.73c0.89-4.57,0.43-8.39-1.93-11.07
						C303.07,18.32,302.19,17.65,301.16,17.1z"/>
					<path id="XMLID_25_" class="st14" d="M298.61,16.09c-0.37-0.11-0.76-0.21-1.15-0.3c-0.4-0.09-0.8-0.16-1.22-0.23
						c-1.46-0.24-3.06-0.35-4.78-0.35h-14.48c-0.36,0-0.7,0.08-1,0.23c-0.67,0.32-1.16,0.95-1.28,1.73l-3.08,19.51l-0.09,0.57
						c0.2-1.28,1.3-2.23,2.6-2.23h5.42c10.65,0,18.98-4.32,21.42-16.83c0.07-0.37,0.13-0.73,0.19-1.08c-0.62-0.33-1.28-0.61-2-0.84
						C298.97,16.2,298.79,16.14,298.61,16.09z"/>
					<path id="XMLID_24_" class="st12" d="M274.69,17.16c0.12-0.77,0.62-1.41,1.28-1.73c0.31-0.15,0.64-0.23,1-0.23h14.48
						c1.72,0,3.32,0.11,4.78,0.35c0.42,0.07,0.82,0.14,1.22,0.23c0.39,0.09,0.78,0.19,1.15,0.3c0.19,0.06,0.37,0.11,0.55,0.17
						c0.72,0.24,1.39,0.52,2,0.84c0.72-4.62-0.01-7.77-2.51-10.62C295.9,3.34,290.92,2,284.56,2h-18.48c-1.3,0-2.41,0.95-2.61,2.23
						l-7.7,48.78c-0.15,0.97,0.59,1.84,1.57,1.84h11.41l2.86-18.17L274.69,17.16z"/>
				</g>
			</g>
		</g>
	</g>
	<g id="XMLID_5_">
		<g id="XMLID_6_">
			<defs>
				<polyline id="XMLID_1_" points="500,2 500,67 255.76,67 255.76,2 				"/>
			</defs>
			<clipPath id="XMLID_22_">
				<use xlink:href="#XMLID_1_"  style="overflow:visible;"/>
			</clipPath>
			<g id="XMLID_8_" class="st15">
				<defs>
					<polyline id="XMLID_2_" points="500,2 500,67 255.76,67 255.76,2 					"/>
				</defs>
				<clipPath id="XMLID_23_">
					<use xlink:href="#XMLID_2_"  style="overflow:visible;"/>
				</clipPath>
				<g id="XMLID_10_" class="st16">
					<defs>
						<polyline id="XMLID_3_" points="500,2 500,67 255.76,67 255.76,2 						"/>
					</defs>
					<clipPath id="XMLID_39_">
						<use xlink:href="#XMLID_3_"  style="overflow:visible;"/>
					</clipPath>
				</g>
			</g>
		</g>
	</g>
</g>
</svg>
