<?xml version="1.0" encoding="utf-8"?>
<!-- Generator: Adobe Illustrator 23.0.0, SVG Export Plug-In . SVG Version: 6.00 Build 0)  -->
<svg version="1.1" id="Layer_1" xmlns="http://www.w3.org/2000/svg" xmlns:xlink="http://www.w3.org/1999/xlink" x="0px" y="0px"
	 viewBox="0 0 500 65" style="enable-background:new 0 0 500 65;" xml:space="preserve">
<style type="text/css">
	.st0{fill-rule:evenodd;clip-rule:evenodd;fill:#226A7C;}
	.st1{fill-rule:evenodd;clip-rule:evenodd;fill:#EE7A2A;}
	.st2{fill-rule:evenodd;clip-rule:evenodd;fill:#FFFFFF;}
	.st3{clip-path:url(#SVGID_4_);}
	.st4{fill:#253B80;}
	.st5{fill:#179BD7;}
	.st6{fill:#222D65;}
	.st7{clip-path:url(#SVGID_8_);}
	.st8{fill:#4C2A86;}
</style>
<g>
	<g>
		<path class="st0" d="M93.2,10.1h9.56l23.3,31.37c0,0,0-23.9,0-26.59s-3.68-4.68-3.68-4.68h11.95c0,0-3.13,1.79-3.13,4.63
			s0,40.33,0,40.33s-5.52-2.24-9.71-7.91c-4.18-5.68-19.86-26.14-19.86-26.14s0,25.69,0,27.63c0,1.95,3.29,4.34,3.29,4.34h-11.8
			c0,0,3.29-1.79,3.29-4.18s0-30.02,0-33.6S93.2,10.1,93.2,10.1z"/>
		<path class="st0" d="M144.48,41.46V14.88c0-2.69-3.68-4.68-3.68-4.68h13.99c0,0-3.13,1.79-3.13,4.63v33.31
			c0,2.54,2.99,4.48,2.99,4.48l-13.44,0.15c0,0,3.29-2.04,3.29-4.13C144.48,46.54,144.48,41.46,144.48,41.46z"/>
		<path class="st0" d="M64.23,14.28v12.85h6.12c2.83,0,6.87-1.49,6.87-6.72c0-5.23-5.97-6.12-8.07-6.12L64.23,14.28L64.23,14.28z
			 M64.23,31.31v16.73h8.07c3.14,0,8.96-2.69,8.96-7.91c0-5.23-4.78-8.81-9.26-8.81L64.23,31.31L64.23,31.31z M53.82,10.05h20.61
			c4.63,0,9.96,3.93,9.96,9.31c0,7.32-5.63,8.32-5.63,8.32s9.86,2.39,9.86,11.8c0,9.41-10.75,12.99-14.34,12.99H53.52
			c0,0,3.58-1.94,3.58-5.08V15.13C57.11,11.84,53.82,10.05,53.82,10.05z"/>
		<rect y="10" class="st1" width="42.72" height="42.72"/>
		<path class="st2" d="M13.74,10h5.38c0,0-0.9,2.69,0,8.36s5.38,9.86,5.38,9.86s-1.49-3.58,4.48-9.86s13.74-2.39,13.74-2.39v7.47
			c0,0-5.38-6.87-11.05-3.58c-4.18,2.42-6.57,5.97-1.19,14.64s12.25,5.38,12.25,5.38v2.09c0,0-2.99,2.69-8.96,1.79
			c-3.72-0.56-6.72-2.95-9.98-6.79l-5.23,4.18c3.29,3.96,5.95,6.85,6.85,7.39c2.99,1.79,5.08,1.79,5.08,1.79l-2.99,2.39h-6.87
			c0,0,0.6-1.49-0.6-2.69c-1.19-1.19-4.98-6.18-4.98-6.18L4.18,52.72H0.17l12.97-10.75L0,25.83v-8.07c0,0,9.56,12.32,16.99,21.37
			l5.14-4.2c-1.43-1.82-3.16-4.23-4.81-6.43C11.05,20.16,13.74,10,13.74,10z"/>
	</g>
	<g id="XMLID_4_">
		<g id="XMLID_82_">
			<g id="XMLID_83_">
				<g>
					<defs>
						<rect id="SVGID_1_" x="175.6" y="10" width="169.68" height="45.16"/>
					</defs>
					<clipPath id="SVGID_2_">
						<use xlink:href="#SVGID_1_"  style="overflow:visible;"/>
					</clipPath>
				</g>
			</g>
		</g>
		<g id="XMLID_75_">
			<g id="XMLID_76_">
				<g>
					<defs>
						<rect id="SVGID_3_" x="175.6" y="10" width="169.68" height="45.16"/>
					</defs>
					<clipPath id="SVGID_4_">
						<use xlink:href="#SVGID_3_"  style="overflow:visible;"/>
					</clipPath>
					<g id="XMLID_78_" class="st3">
						<g>
							<defs>
								<rect id="SVGID_5_" x="175.6" y="10" width="169.68" height="45.16"/>
							</defs>
							<clipPath id="SVGID_6_">
								<use xlink:href="#SVGID_5_"  style="overflow:visible;"/>
							</clipPath>
						</g>
					</g>
				</g>
			</g>
		</g>
		<g id="XMLID_12_">
			<g id="XMLID_13_">
				<g id="XMLID_14_">
					<g id="XMLID_15_">
						<path id="XMLID_57_" class="st4" d="M239.91,28c-0.51,3.36-3.08,3.36-5.56,3.36h-1.41l0.99-6.27
							c0.06-0.38,0.39-0.66,0.77-0.66h0.65c1.69,0,3.29,0,4.11,0.97C239.95,25.96,240.09,26.82,239.91,28z M238.83,19.23h-9.36
							c-0.64,0-1.19,0.47-1.29,1.1l-3.79,24c-0.08,0.47,0.29,0.9,0.77,0.9h4.47c0.64,0,1.19-0.47,1.29-1.1l1.02-6.47
							c0.1-0.63,0.65-1.1,1.29-1.1h2.96c6.16,0,9.72-2.98,10.65-8.89c0.42-2.58,0.02-4.62-1.19-6.04
							C244.32,20.06,241.96,19.23,238.83,19.23z"/>
						<path id="XMLID_54_" class="st4" d="M260.55,36.61c-0.43,2.56-2.47,4.28-5.06,4.28c-1.3,0-2.34-0.42-3.01-1.21
							c-0.66-0.79-0.92-1.9-0.7-3.15c0.4-2.54,2.47-4.31,5.02-4.31c1.27,0,2.31,0.42,2.99,1.22
							C260.48,34.25,260.75,35.37,260.55,36.61z M266.81,27.89h-4.48c-0.38,0-0.71,0.28-0.77,0.66l-0.2,1.25l-0.31-0.45
							c-0.97-1.41-3.13-1.88-5.29-1.88c-4.95,0-9.18,3.75-10,9.01c-0.43,2.63,0.18,5.13,1.67,6.88c1.37,1.61,3.32,2.28,5.65,2.28
							c3.99,0,6.2-2.56,6.2-2.56l-0.2,1.24c-0.08,0.48,0.29,0.9,0.77,0.9h4.04c0.64,0,1.18-0.47,1.29-1.1l2.42-15.34
							C267.65,28.32,267.29,27.89,266.81,27.89z"/>
						<path id="XMLID_33_" class="st4" d="M290.67,27.89h-4.5c-0.43,0-0.83,0.22-1.08,0.57l-6.21,9.15l-2.63-8.8
							c-0.17-0.55-0.67-0.93-1.25-0.93h-4.43c-0.53,0-0.91,0.53-0.74,1.04l4.96,14.55l-4.66,6.59c-0.37,0.52,0,1.23,0.64,1.23h4.49
							c0.42,0,0.83-0.21,1.07-0.56l14.98-21.62C291.67,28.6,291.3,27.89,290.67,27.89z"/>
						<path id="XMLID_38_" class="st5" d="M306.66,28c-0.51,3.36-3.08,3.36-5.56,3.36h-1.41l0.99-6.27
							c0.06-0.38,0.38-0.66,0.77-0.66h0.65c1.69,0,3.29,0,4.11,0.97C306.7,25.96,306.85,26.82,306.66,28z M305.58,19.23h-9.36
							c-0.64,0-1.18,0.47-1.29,1.1l-3.79,24c-0.08,0.47,0.29,0.9,0.77,0.9h4.8c0.44,0,0.83-0.33,0.9-0.77l1.08-6.8
							c0.1-0.63,0.65-1.1,1.29-1.1h2.96c6.17,0,9.72-2.98,10.65-8.89c0.42-2.58,0.01-4.62-1.19-6.04
							C311.07,20.06,308.71,19.23,305.58,19.23z"/>
						<path id="XMLID_21_" class="st5" d="M327.31,36.61c-0.43,2.56-2.47,4.28-5.06,4.28c-1.3,0-2.34-0.42-3.01-1.21
							c-0.66-0.79-0.91-1.9-0.7-3.15c0.4-2.54,2.47-4.31,5.02-4.31c1.27,0,2.31,0.42,2.99,1.22
							C327.23,34.25,327.5,35.37,327.31,36.61z M333.55,27.89h-4.48c-0.38,0-0.71,0.28-0.77,0.66l-0.2,1.25l-0.31-0.45
							c-0.97-1.41-3.13-1.88-5.29-1.88c-4.95,0-9.18,3.75-10,9.01c-0.42,2.63,0.18,5.13,1.67,6.88c1.37,1.61,3.32,2.28,5.64,2.28
							c3.99,0,6.2-2.56,6.2-2.56l-0.2,1.24c-0.08,0.48,0.29,0.9,0.77,0.9h4.04c0.64,0,1.18-0.47,1.29-1.1l2.42-15.34
							C334.4,28.32,334.03,27.89,333.55,27.89z"/>
						<path id="XMLID_28_" class="st5" d="M338.83,19.89l-3.84,24.43c-0.08,0.47,0.29,0.9,0.77,0.9h3.86c0.64,0,1.19-0.47,1.29-1.1
							l3.79-24c0.08-0.47-0.29-0.9-0.77-0.9h-4.32C339.22,19.23,338.9,19.52,338.83,19.89z"/>
						<path id="XMLID_27_" class="st4" d="M185.54,49.89l0.72-4.54l-1.59-0.03h-7.61l5.29-33.54c0.01-0.1,0.07-0.19,0.15-0.26
							c0.08-0.07,0.18-0.1,0.28-0.1h12.84c4.26,0,7.2,0.89,8.74,2.64c0.72,0.82,1.18,1.68,1.4,2.63c0.23,0.99,0.24,2.17,0.01,3.62
							l-0.01,0.1v0.92l0.72,0.41c0.6,0.32,1.09,0.69,1.46,1.11c0.62,0.7,1.01,1.59,1.18,2.65c0.17,1.09,0.12,2.38-0.17,3.85
							c-0.33,1.69-0.86,3.15-1.58,4.36c-0.66,1.1-1.5,2.03-2.49,2.74c-0.95,0.67-2.08,1.19-3.36,1.51c-1.24,0.32-2.65,0.49-4.2,0.49
							h-1c-0.72,0-1.41,0.26-1.95,0.72c-0.55,0.47-0.91,1.11-1.02,1.82l-0.08,0.41l-1.26,8.01l-0.06,0.29
							c-0.01,0.09-0.04,0.14-0.08,0.17c-0.03,0.03-0.08,0.05-0.13,0.05h-6.18V49.89z"/>
						<path id="XMLID_26_" class="st5" d="M207.14,20.49c-0.04,0.24-0.08,0.49-0.13,0.75c-1.7,8.69-7.48,11.69-14.88,11.69h-3.77
							c-0.9,0-1.67,0.66-1.81,1.55l-1.93,12.23l-0.55,3.47c-0.09,0.58,0.36,1.11,0.95,1.11h6.68c0.79,0,1.47-0.58,1.58-1.35
							l0.06-0.34l1.26-7.98l0.08-0.44c0.13-0.79,0.8-1.35,1.58-1.35h1c6.47,0,11.54-2.63,13.02-10.23c0.62-3.17,0.3-5.83-1.34-7.69
							C208.46,21.34,207.85,20.87,207.14,20.49z"/>
						<path id="XMLID_25_" class="st6" d="M205.37,19.79c-0.26-0.08-0.53-0.15-0.8-0.21c-0.28-0.06-0.56-0.11-0.85-0.16
							c-1.01-0.17-2.13-0.24-3.32-0.24h-10.06c-0.25,0-0.49,0.06-0.69,0.16c-0.47,0.22-0.81,0.66-0.89,1.2l-2.14,13.55l-0.06,0.4
							c0.14-0.89,0.9-1.55,1.81-1.55h3.77c7.4,0,13.19-3,14.88-11.69c0.05-0.26,0.09-0.51,0.13-0.75c-0.43-0.23-0.89-0.42-1.39-0.58
							C205.62,19.86,205.49,19.82,205.37,19.79z"/>
						<path id="XMLID_24_" class="st4" d="M188.75,20.53c0.08-0.53,0.43-0.98,0.89-1.2c0.22-0.1,0.44-0.16,0.69-0.16h10.06
							c1.19,0,2.31,0.08,3.32,0.24c0.29,0.05,0.57,0.1,0.85,0.16c0.27,0.06,0.54,0.13,0.8,0.21c0.13,0.04,0.26,0.08,0.38,0.12
							c0.5,0.17,0.97,0.36,1.39,0.58c0.5-3.21-0.01-5.4-1.74-7.38c-1.9-2.17-5.36-3.11-9.78-3.11h-12.84c-0.9,0-1.67,0.66-1.81,1.55
							l-5.35,33.89c-0.1,0.67,0.41,1.28,1.09,1.28h7.93l1.99-12.62L188.75,20.53z"/>
					</g>
				</g>
			</g>
		</g>
		<g id="XMLID_5_">
			<g id="XMLID_6_">
				<g>
					<defs>
						<polyline id="SVGID_7_" points="345.27,10 345.27,55.16 175.6,55.16 175.6,10 						"/>
					</defs>
					<clipPath id="SVGID_8_">
						<use xlink:href="#SVGID_7_"  style="overflow:visible;"/>
					</clipPath>
					<g id="XMLID_8_" class="st7">
						<g>
							<defs>
								<polyline id="SVGID_9_" points="345.27,10 345.27,55.16 175.6,55.16 175.6,10 								"/>
							</defs>
							<clipPath id="SVGID_10_">
								<use xlink:href="#SVGID_9_"  style="overflow:visible;"/>
							</clipPath>
						</g>
					</g>
				</g>
			</g>
		</g>
	</g>
	<g>
		<path class="st8" d="M385.02,10c12.62-0.05,22.55,9.94,22.48,22.6c-0.08,12.7-9.81,22.51-22.32,22.52
			c-12.79,0.01-22.46-9.64-22.53-22.48C362.57,19.86,372.27,10.05,385.02,10z M398.83,32.54c0-8.17-5.79-14.74-13.18-14.96
			c-8.65-0.26-15.33,7.43-14.32,16.49c0.86,7.79,6.3,13.33,13.24,13.47C392.67,47.71,398.83,41.24,398.83,32.54z"/>
		<path class="st8" d="M477.75,10.01c12.57,0.03,22.23,9.81,22.25,22.53c0.02,12.8-9.75,22.52-22.43,22.62
			c-11.11,0.08-22.3-8.18-22.39-22.68C455.09,19.63,465.03,9.98,477.75,10.01z M463.81,32.53c-0.01,8.17,5.8,14.82,13.13,15.01
			c8.48,0.23,15.04-6.93,14.44-15.74c-0.47-6.91-4.5-12.29-10.31-13.78C472.03,15.73,463.83,22.62,463.81,32.53z"/>
		<path class="st8" d="M432.83,42.35c3.29-8.07,6.37-15.64,9.58-23.51c-1.47-0.16-2.69-0.29-4.17-0.45c0-2.11-0.09-4.15,0.07-6.18
			c0.03-0.42,0.97-1.09,1.51-1.1c3.8-0.09,7.61-0.1,11.41,0.02c0.52,0.02,1.44,0.91,1.43,1.39c-0.01,1.48-0.09,3.08-0.65,4.42
			c-5.1,12.18-10.34,24.31-15.44,36.49c-0.59,1.42-1.37,1.77-2.73,1.69c-3.22-0.19-5.41-1.82-6.67-4.71
			c-4-9.19-8.03-18.36-11.93-27.59c-1.16-2.74-2.12-5.35-6.28-4.01c0-2.51-0.07-4.68,0.07-6.83c0.02-0.34,0.96-0.87,1.48-0.88
			c5.02-0.07,10.04-0.02,15.06-0.05c1.16-0.01,1.7,0.41,1.63,1.59c-0.03,0.53,0.01,1.06,0.01,1.6c0.02,4.01,0.02,4.01-4.23,4.65
			C426.21,26.62,429.42,34.25,432.83,42.35z"/>
	</g>
</g>
</svg>
