<?xml version="1.0" encoding="utf-8"?>
<!-- Generator: Adobe Illustrator 23.0.0, SVG Export Plug-In . SVG Version: 6.00 Build 0)  -->
<svg version="1.1" id="Layer_1" xmlns="http://www.w3.org/2000/svg" xmlns:xlink="http://www.w3.org/1999/xlink" x="0px" y="0px"
	 viewBox="0 0 244 65" style="enable-background:new 0 0 244 65;" xml:space="preserve">
<style type="text/css">
	.st0{clip-path:url(#XMLID_11_);}
	.st1{clip-path:url(#XMLID_17_);}
	.st2{clip-path:url(#XMLID_18_);}
	.st3{fill:#253B80;}
	.st4{fill:#179BD7;}
	.st5{fill:#222D65;}
	.st6{clip-path:url(#XMLID_22_);}
	.st7{clip-path:url(#XMLID_23_);}
</style>
<g id="XMLID_4_">
	<g id="XMLID_87_">
		<g id="XMLID_88_">
			<defs>
				<rect id="XMLID_52_" width="244.24" height="65"/>
			</defs>
			<clipPath id="XMLID_9_">
				<use xlink:href="#XMLID_52_"  style="overflow:visible;"/>
			</clipPath>
		</g>
	</g>
	<g id="XMLID_82_">
		<g id="XMLID_83_">
			<defs>
				<rect id="XMLID_50_" width="244.24" height="65"/>
			</defs>
			<clipPath id="XMLID_11_">
				<use xlink:href="#XMLID_50_"  style="overflow:visible;"/>
			</clipPath>
			<g id="XMLID_85_" class="st0">
				<defs>
					<rect id="XMLID_51_" width="244.24" height="65"/>
				</defs>
				<clipPath id="XMLID_16_">
					<use xlink:href="#XMLID_51_"  style="overflow:visible;"/>
				</clipPath>
			</g>
		</g>
	</g>
	<g id="XMLID_75_">
		<g id="XMLID_76_">
			<defs>
				<rect id="XMLID_47_" width="244.24" height="65"/>
			</defs>
			<clipPath id="XMLID_17_">
				<use xlink:href="#XMLID_47_"  style="overflow:visible;"/>
			</clipPath>
			<g id="XMLID_78_" class="st1">
				<defs>
					<rect id="XMLID_48_" width="244.24" height="65"/>
				</defs>
				<clipPath id="XMLID_18_">
					<use xlink:href="#XMLID_48_"  style="overflow:visible;"/>
				</clipPath>
				<g id="XMLID_80_" class="st2">
					<defs>
						<rect id="XMLID_49_" width="244.24" height="65"/>
					</defs>
					<clipPath id="XMLID_19_">
						<use xlink:href="#XMLID_49_"  style="overflow:visible;"/>
					</clipPath>
				</g>
			</g>
		</g>
	</g>
	<g id="XMLID_72_">
		<g id="XMLID_73_">
			<defs>
				<rect id="XMLID_46_" width="244.24" height="65"/>
			</defs>
			<clipPath id="XMLID_20_">
				<use xlink:href="#XMLID_46_"  style="overflow:visible;"/>
			</clipPath>
		</g>
	</g>
	<g id="XMLID_12_">
		<g id="XMLID_13_">
			<g id="XMLID_14_">
				<g id="XMLID_15_">
					<path id="XMLID_57_" class="st3" d="M92.58,25.91c-0.74,4.83-4.43,4.83-8,4.83h-2.03l1.43-9.03c0.08-0.55,0.56-0.95,1.11-0.95
						h0.93c2.43,0,4.73,0,5.91,1.39C92.63,22.98,92.85,24.21,92.58,25.91z M91.02,13.29H77.55c-0.92,0-1.71,0.67-1.85,1.58
						l-5.45,34.54c-0.11,0.68,0.42,1.3,1.11,1.3h6.43c0.92,0,1.71-0.67,1.85-1.58l1.47-9.32c0.14-0.91,0.93-1.58,1.85-1.58h4.26
						c8.87,0,13.99-4.29,15.33-12.8c0.6-3.72,0.03-6.65-1.72-8.7C98.93,14.48,95.53,13.29,91.02,13.29z"/>
					<path id="XMLID_54_" class="st3" d="M122.3,38.31c-0.62,3.69-3.55,6.16-7.28,6.16c-1.87,0-3.37-0.6-4.33-1.74
						c-0.95-1.13-1.32-2.74-1.01-4.53c0.58-3.65,3.56-6.21,7.23-6.21c1.83,0,3.32,0.61,4.3,1.76
						C122.19,34.9,122.58,36.52,122.3,38.31z M131.29,25.75h-6.45c-0.55,0-1.02,0.4-1.11,0.95l-0.29,1.8l-0.45-0.65
						c-1.4-2.03-4.51-2.7-7.62-2.7c-7.13,0-13.22,5.4-14.4,12.97c-0.62,3.78,0.26,7.39,2.4,9.91c1.97,2.32,4.78,3.28,8.13,3.28
						c5.74,0,8.93-3.69,8.93-3.69l-0.29,1.79c-0.11,0.69,0.42,1.3,1.11,1.3h5.81c0.92,0,1.7-0.67,1.85-1.58l3.49-22.08
						C132.5,26.37,131.98,25.75,131.29,25.75z"/>
					<path id="XMLID_33_" class="st3" d="M165.64,25.75h-6.48c-0.62,0-1.2,0.31-1.55,0.82l-8.94,13.17l-3.79-12.66
						c-0.24-0.79-0.97-1.34-1.8-1.34h-6.37c-0.77,0-1.31,0.76-1.07,1.49l7.14,20.95l-6.71,9.48c-0.53,0.75,0,1.77,0.92,1.77h6.47
						c0.61,0,1.19-0.3,1.54-0.8l21.56-31.12C167.08,26.77,166.55,25.75,165.64,25.75z"/>
					<path id="XMLID_38_" class="st4" d="M188.66,25.91c-0.73,4.83-4.43,4.83-8,4.83h-2.03l1.43-9.03c0.08-0.55,0.55-0.95,1.11-0.95
						h0.93c2.43,0,4.73,0,5.91,1.39C188.71,22.98,188.93,24.21,188.66,25.91z M187.11,13.29h-13.47c-0.92,0-1.7,0.67-1.85,1.58
						l-5.45,34.54c-0.11,0.68,0.42,1.3,1.11,1.3h6.91c0.64,0,1.19-0.47,1.29-1.11l1.55-9.79c0.14-0.91,0.93-1.58,1.85-1.58h4.26
						c8.88,0,13.99-4.29,15.33-12.8c0.6-3.72,0.02-6.65-1.72-8.7C195.01,14.48,191.61,13.29,187.11,13.29z"/>
					<path id="XMLID_21_" class="st4" d="M218.38,38.31c-0.62,3.69-3.55,6.16-7.28,6.16c-1.87,0-3.37-0.6-4.33-1.74
						c-0.95-1.13-1.31-2.74-1.01-4.53c0.58-3.65,3.56-6.21,7.23-6.21c1.83,0,3.32,0.61,4.3,1.76
						C218.27,34.9,218.66,36.52,218.38,38.31z M227.37,25.75h-6.45c-0.55,0-1.02,0.4-1.11,0.95l-0.29,1.8l-0.45-0.65
						c-1.4-2.03-4.51-2.7-7.62-2.7c-7.13,0-13.21,5.4-14.4,12.97c-0.61,3.78,0.26,7.39,2.4,9.91c1.97,2.32,4.78,3.28,8.12,3.28
						c5.74,0,8.93-3.69,8.93-3.69l-0.29,1.79c-0.11,0.69,0.42,1.3,1.11,1.3h5.81c0.92,0,1.7-0.67,1.85-1.58l3.49-22.08
						C228.59,26.37,228.06,25.75,227.37,25.75z"/>
					<path id="XMLID_28_" class="st4" d="M234.98,14.24l-5.53,35.17c-0.11,0.68,0.42,1.3,1.11,1.3h5.56c0.92,0,1.71-0.67,1.85-1.58
						l5.45-34.54c0.11-0.68-0.42-1.3-1.11-1.3h-6.22C235.53,13.29,235.06,13.7,234.98,14.24z"/>
					<path id="XMLID_27_" class="st3" d="M14.31,57.42l1.03-6.54l-2.29-0.05H2.09L9.7,2.54c0.02-0.15,0.1-0.28,0.21-0.38
						c0.11-0.1,0.26-0.15,0.41-0.15H28.8c6.13,0,10.37,1.28,12.58,3.8c1.04,1.18,1.7,2.42,2.01,3.78c0.33,1.43,0.34,3.13,0.01,5.21
						l-0.02,0.15v1.33l1.04,0.59c0.87,0.46,1.57,0.99,2.1,1.6c0.89,1.01,1.46,2.29,1.7,3.82c0.25,1.57,0.17,3.43-0.24,5.54
						c-0.47,2.43-1.24,4.54-2.27,6.27c-0.95,1.59-2.16,2.92-3.59,3.94c-1.37,0.97-3,1.71-4.84,2.18c-1.78,0.46-3.82,0.7-6.05,0.7
						h-1.44c-1.03,0-2.03,0.37-2.81,1.03c-0.79,0.68-1.31,1.6-1.47,2.62l-0.11,0.59l-1.82,11.53l-0.08,0.42
						c-0.02,0.13-0.06,0.2-0.11,0.25c-0.05,0.04-0.12,0.07-0.19,0.07H14.31z"/>
					<path id="XMLID_26_" class="st4" d="M45.4,15.1c-0.06,0.35-0.12,0.71-0.19,1.08c-2.44,12.51-10.77,16.83-21.42,16.83h-5.42
						c-1.3,0-2.4,0.95-2.6,2.23l-2.78,17.6l-0.79,4.99c-0.13,0.84,0.52,1.6,1.37,1.6h9.61c1.14,0,2.11-0.83,2.28-1.95L25.57,57
						l1.81-11.49l0.12-0.63c0.18-1.13,1.15-1.95,2.28-1.95h1.44c9.31,0,16.61-3.78,18.74-14.73c0.89-4.57,0.43-8.39-1.93-11.07
						C47.32,16.32,46.43,15.65,45.4,15.1z"/>
					<path id="XMLID_25_" class="st5" d="M42.85,14.09c-0.37-0.11-0.76-0.21-1.15-0.3c-0.4-0.09-0.8-0.16-1.22-0.23
						c-1.46-0.24-3.06-0.35-4.78-0.35H21.22c-0.36,0-0.7,0.08-1,0.23c-0.67,0.32-1.16,0.95-1.28,1.73l-3.08,19.51l-0.09,0.57
						c0.2-1.28,1.3-2.23,2.6-2.23h5.42c10.65,0,18.98-4.32,21.42-16.83c0.07-0.37,0.13-0.73,0.19-1.08c-0.62-0.33-1.28-0.61-2-0.84
						C43.22,14.2,43.03,14.14,42.85,14.09z"/>
					<path id="XMLID_24_" class="st3" d="M18.94,15.16c0.12-0.77,0.62-1.41,1.28-1.73c0.31-0.15,0.64-0.23,1-0.23H35.7
						c1.72,0,3.32,0.11,4.78,0.35c0.42,0.07,0.82,0.14,1.22,0.23c0.39,0.09,0.78,0.19,1.15,0.3c0.19,0.06,0.37,0.11,0.55,0.17
						c0.72,0.24,1.39,0.52,2,0.84c0.72-4.62-0.01-7.77-2.51-10.62C40.14,1.34,35.17,0,28.8,0H10.33c-1.3,0-2.41,0.95-2.61,2.23
						l-7.7,48.78c-0.15,0.97,0.59,1.84,1.57,1.84h11.41l2.86-18.17L18.94,15.16z"/>
				</g>
			</g>
		</g>
	</g>
	<g id="XMLID_5_">
		<g id="XMLID_6_">
			<defs>
				<polyline id="XMLID_1_" points="244.24,0 244.24,65 0,65 0,0 				"/>
			</defs>
			<clipPath id="XMLID_22_">
				<use xlink:href="#XMLID_1_"  style="overflow:visible;"/>
			</clipPath>
			<g id="XMLID_8_" class="st6">
				<defs>
					<polyline id="XMLID_2_" points="244.24,0 244.24,65 0,65 0,0 					"/>
				</defs>
				<clipPath id="XMLID_23_">
					<use xlink:href="#XMLID_2_"  style="overflow:visible;"/>
				</clipPath>
				<g id="XMLID_10_" class="st7">
					<defs>
						<polyline id="XMLID_3_" points="244.24,0 244.24,65 0,65 0,0 						"/>
					</defs>
					<clipPath id="XMLID_39_">
						<use xlink:href="#XMLID_3_"  style="overflow:visible;"/>
					</clipPath>
				</g>
			</g>
		</g>
	</g>
</g>
</svg>
