<?xml version="1.0" encoding="utf-8"?>
<!-- Generator: Adobe Illustrator 23.0.0, SVG Export Plug-In . SVG Version: 6.00 Build 0)  -->
<svg version="1.1" id="Layer_1" xmlns="http://www.w3.org/2000/svg" xmlns:xlink="http://www.w3.org/1999/xlink" x="0px" y="0px"
	 viewBox="0 0 250 75" style="enable-background:new 0 0 250 75;" xml:space="preserve">
<style type="text/css">
	.st0{fill:#EE4C58;}
	.st1{fill:#EF5956;}
	.st2{fill:#ED6856;}
	.st3{fill:#F07654;}
	.st4{fill:#F38654;}
	.st5{fill:#F69653;}
	.st6{fill:#F9A852;}
	.st7{fill:#FDB94E;stroke:#FDB94E;stroke-width:0.5;stroke-miterlimit:10;}
</style>
<g>
	<path class="st0" d="M5.95,46.73V30.35H0v-2.07h14.19v2.07H8.25v16.38H5.95z"/>
	<path class="st1" d="M16.63,46.73V28.27h2.3v18.45H16.63z"/>
	<path class="st2" d="M29.48,28.27c3.47,0,5.91,2.43,5.91,5.92c0,3.5-2.47,5.95-5.93,5.95h-4.64v6.59h-2.3V28.27H29.48z
		 M24.82,38.09h4.07c2.63,0,4.14-1.45,4.14-3.9c0-2.44-1.5-3.87-4.14-3.87h-4.07V38.09z"/>
	<path class="st3" d="M39.46,41.65c0.22,2,2.11,3.31,4.74,3.31c2.49,0,4.31-1.32,4.31-3.13c0-1.56-1.09-2.52-3.57-3.16l-2.37-0.61
		c-3.4-0.87-4.91-2.37-4.91-4.87c0-3.07,2.69-5.22,6.52-5.22c3.67,0,6.33,2.17,6.43,5.27h-2.3c-0.21-1.98-1.8-3.2-4.21-3.2
		c-2.39,0-4.05,1.24-4.05,3.04c0,1.39,1.02,2.23,3.53,2.88l1.93,0.51c3.82,0.96,5.37,2.43,5.37,5.08c0,3.38-2.66,5.49-6.91,5.49
		c-3.91,0-6.62-2.12-6.84-5.38H39.46z"/>
	<path class="st4" d="M66.18,28.27c5.47,0,8.71,3.41,8.71,9.22c0,5.82-3.22,9.23-8.71,9.23h-6.33V28.27H66.18z M62.16,44.65h3.87
		c4.18,0,6.51-2.56,6.51-7.14c0-4.62-2.31-7.17-6.51-7.17h-3.87V44.65z"/>
	<path class="st5" d="M89.18,46.73H77.75V28.27h11.43v2.07h-9.13v5.92h8.66v2.05h-8.66v6.34h9.13V46.73z"/>
	<path class="st6" d="M93.65,41.65c0.22,2,2.11,3.31,4.74,3.31c2.49,0,4.31-1.32,4.31-3.13c0-1.56-1.09-2.52-3.57-3.16l-2.37-0.61
		c-3.4-0.87-4.91-2.37-4.91-4.87c0-3.07,2.69-5.22,6.52-5.22c3.67,0,6.33,2.17,6.43,5.27h-2.3c-0.2-1.98-1.8-3.2-4.21-3.2
		c-2.39,0-4.05,1.24-4.05,3.04c0,1.39,1.02,2.23,3.53,2.88l1.93,0.51c3.82,0.96,5.37,2.43,5.37,5.08c0,3.38-2.66,5.49-6.91,5.49
		c-3.91,0-6.62-2.12-6.84-5.38H93.65z"/>
	<path class="st6" d="M132.43,46.73V28.27h2.3v18.45H132.43z"/>
	<path class="st5" d="M138.32,46.73V28.27h2.24l10.1,14.49h0.12V28.27h2.28v18.45h-2.24l-10.1-14.44h-0.12v14.44H138.32z"/>
	<path class="st4" d="M165.2,46.73h-2.3V28.27h7.05c3.56,0,5.88,2.17,5.88,5.5c0,2.57-1.39,4.57-3.71,5.29l4.27,7.66h-2.7l-3.95-7.3
		h-4.54V46.73z M165.2,37.39h4.54c2.37,0,3.71-1.28,3.71-3.54c0-2.21-1.43-3.53-3.81-3.53h-4.44V37.39z"/>
	<path class="st3" d="M181.03,40.1c0,2.79,1.83,4.81,5.03,4.81c3.2,0,5.03-2.02,5.03-4.81V28.27h2.3v11.98
		c0,3.94-2.75,6.78-7.33,6.78s-7.33-2.84-7.33-6.78V28.27h2.3V40.1z"/>
	<path class="st2" d="M213,46.73V32.51h-0.09l-5.88,14.09h-1.94l-5.88-14.09h-0.09v14.22h-2.15V28.27h2.67l6.37,15.4h0.1l6.37-15.4
		h2.67v18.45H213z"/>
	<path class="st1" d="M228.88,41.45h-7.34l-1.85,5.28h-2.42l6.8-18.45h2.28l6.8,18.45h-2.42L228.88,41.45z M222.22,39.49h5.99
		l-2.95-8.41h-0.08L222.22,39.49z"/>
	<path class="st0" d="M247.7,46.73v-8.4h-10.13v8.4h-2.3V28.27h2.3v7.98h10.13v-7.98h2.3v18.45H247.7z"/>
	<g>
		<path class="st7" d="M130.05,40.84l-3.73-2.81V36.9c0-0.15-0.07-0.3-0.2-0.39l-7.33-5.53c-0.18-0.13-0.42-0.13-0.59,0l-7.33,5.53
			c-0.12,0.09-0.2,0.24-0.2,0.39v1.13l-3.73,2.81c-0.12,0.09-0.2,0.24-0.2,0.39v4.98c0,0.27,0.22,0.49,0.49,0.49h3.92h3.92h6.82
			h3.92h3.92c0.27,0,0.49-0.22,0.49-0.49v-4.98C130.25,41.08,130.18,40.93,130.05,40.84L130.05,40.84z M119.03,45.72h-1.07v-2.48
			h1.07V45.72L119.03,45.72z M120.02,45.72v-2.98c0-0.27-0.22-0.49-0.49-0.49h-2.05c-0.27,0-0.49,0.22-0.49,0.49v2.98h-2.39h-2.94
			v-8.57l6.84-5.16l6.84,5.16v8.57h-2.94H120.02z M107.74,41.48l2.94-2.21v6.46h-2.94V41.48z M129.26,45.72h-2.94v-6.46l2.94,2.21
			V45.72z"/>
		<path class="st7" d="M107.54,37.67l10.96-8.26l10.96,8.27c0.09,0.07,0.19,0.1,0.3,0.1c0.15,0,0.3-0.07,0.39-0.2
			c0.16-0.22,0.12-0.53-0.1-0.69l-11.26-8.49c-0.18-0.13-0.42-0.13-0.59,0l-11.26,8.49c-0.22,0.16-0.26,0.47-0.1,0.69
			C107.01,37.79,107.32,37.83,107.54,37.67z"/>
	</g>
</g>
</svg>
