<?xml version="1.0" standalone="no"?>
<!DOCTYPE svg PUBLIC "-//W3C//DTD SVG 20010904//EN"
 "http://www.w3.org/TR/2001/REC-SVG-20010904/DTD/svg10.dtd">
<svg version="1.0" xmlns="http://www.w3.org/2000/svg"
 width="400.000000pt" height="400.000000pt" viewBox="0 0 400.000000 400.000000"
 preserveAspectRatio="xMidYMid meet">

<g transform="translate(0.000000,400.000000) scale(0.100000,-0.100000)"
fill="#000000" stroke="none">
<path d="M2150 3775 c0 -17 10 -32 35 -47 19 -13 35 -28 35 -35 0 -6 -16 -20
-36 -32 -32 -19 -35 -25 -32 -58 2 -30 10 -42 35 -58 37 -23 41 -40 14 -55
-46 -24 -71 -80 -36 -80 8 0 15 6 15 14 0 8 16 24 34 36 55 33 56 58 7 100
-22 20 -41 41 -41 48 0 7 16 22 35 33 58 34 58 69 0 107 -19 12 -35 29 -35 37
0 8 -7 15 -15 15 -9 0 -15 -9 -15 -25z"/>
<path d="M1490 3773 c-40 -27 -49 -45 -50 -94 0 -56 25 -93 76 -109 27 -9 39
-9 47 -1 14 14 -6 31 -35 31 -23 0 -58 47 -58 79 0 37 25 69 62 79 18 4 33 13
36 20 6 18 -50 15 -78 -5z"/>
<path d="M2494 3777 c-2 -7 -3 -58 -2 -113 l3 -99 115 0 115 0 0 110 0 110
-113 3 c-87 2 -114 0 -118 -11z m196 -97 l0 -80 -80 0 -80 0 0 80 0 80 80 0
80 0 0 -80z"/>
<path d="M450 3685 c-64 -65 -82 -87 -73 -96 9 -9 32 7 98 71 81 79 101 110
72 110 -7 0 -50 -38 -97 -85z"/>
<path d="M3335 3760 c-11 -17 17 -21 135 -18 80 2 115 7 118 16 5 15 -243 18
-253 2z"/>
<path d="M863 3583 c-68 -20 -123 -41 -123 -47 0 -12 190 -206 202 -206 3 0 9
8 13 18 12 30 65 240 65 256 0 22 -16 19 -157 -21z m117 -8 c0 -14 -44 -171
-49 -177 -4 -4 -37 23 -75 61 l-68 68 89 25 c99 29 103 30 103 23z"/>
<path d="M3147 3543 c-11 -10 -8 -281 3 -288 14 -9 245 128 245 145 0 8 -52
45 -115 82 -122 71 -123 72 -133 61z m128 -98 c81 -46 81 -45 33 -72 -24 -13
-62 -35 -85 -49 l-43 -25 0 102 0 101 23 -14 c12 -8 45 -27 72 -43z"/>
<path d="M1704 3426 c-38 -38 -45 -86 -19 -135 14 -28 68 -61 100 -61 31 0 81
30 98 59 28 48 22 98 -17 137 -29 29 -41 34 -81 34 -40 0 -52 -5 -81 -34z
m134 -16 c30 -28 36 -62 18 -98 -17 -32 -34 -42 -75 -42 -61 0 -96 62 -67 118
9 17 21 32 28 35 30 12 75 6 96 -13z"/>
<path d="M254 3316 c-4 -10 1 -25 11 -36 17 -19 17 -21 2 -38 -19 -20 -22 -42
-7 -42 5 0 18 10 30 22 l20 22 25 -24 c23 -21 25 -22 31 -5 5 11 1 22 -9 30
-21 15 -21 24 0 47 13 14 14 21 5 30 -9 9 -17 7 -35 -10 l-23 -22 -22 22 c-19
20 -22 20 -28 4z"/>
<path d="M2457 3263 c-4 -3 -7 -12 -7 -20 0 -10 27 -13 119 -13 116 0 153 10
120 31 -16 10 -222 12 -232 2z"/>
<path d="M1425 3180 c-16 -18 -20 -19 -35 -5 -17 15 -50 21 -50 8 0 -4 10 -17
22 -30 20 -21 20 -24 5 -41 -18 -20 -22 -42 -9 -42 5 0 17 9 27 20 18 19 18
19 46 0 35 -26 51 -7 20 23 l-21 21 21 22 c12 13 18 27 14 33 -9 16 -20 14
-40 -9z"/>
<path d="M3654 3189 c-3 -6 3 -20 14 -31 19 -19 19 -22 4 -48 -22 -38 -8 -49
23 -20 l25 23 24 -22 c31 -29 48 -8 17 22 l-21 21 22 23 c17 18 19 26 10 35
-9 9 -17 7 -35 -10 l-24 -22 -18 20 c-20 23 -31 25 -41 9z"/>
<path d="M3056 3087 c-19 -29 -11 -61 19 -77 49 -26 102 49 63 88 -20 20 -66
14 -82 -11z m62 -30 c2 -12 -3 -17 -17 -17 -15 0 -21 6 -21 21 0 25 33 22 38
-4z"/>
<path d="M892 3078 c-21 -21 -14 -66 13 -84 49 -32 104 23 75 75 -12 24 -68
29 -88 9z m62 -33 c3 -9 -1 -18 -10 -22 -19 -7 -39 11 -30 26 10 16 33 13 40
-4z"/>
<path d="M2017 2948 c-53 -93 -66 -123 -55 -129 17 -11 259 -11 277 0 11 7 8
19 -16 62 -79 142 -109 189 -123 189 -9 0 -44 -52 -83 -122z m133 -96 c-28 -2
-72 -2 -99 0 l-50 3 36 60 c73 122 59 119 114 24 l48 -84 -49 -3z"/>
<path d="M408 2994 c-46 -24 -79 -114 -43 -114 9 0 15 9 15 21 0 30 53 79 85
79 32 0 85 -49 85 -79 0 -12 6 -21 15 -21 21 0 19 39 -5 78 -31 51 -96 67
-152 36z"/>
<path d="M2834 2931 c-44 -27 -64 -59 -64 -104 0 -51 52 -107 99 -107 33 0 42
17 14 26 -43 14 -62 29 -74 56 -18 43 8 94 53 106 34 8 45 34 18 39 -8 2 -29
-5 -46 -16z"/>
<path d="M3327 2944 c-4 -4 -7 -56 -7 -115 0 -102 1 -107 23 -113 33 -9 180
-7 195 2 9 6 12 37 10 118 l-3 109 -106 3 c-58 1 -108 -1 -112 -4z m192 -114
l0 -80 -84 0 -85 0 0 80 0 80 84 0 84 0 1 -80z"/>
<path d="M1077 2844 c-4 -4 -7 -56 -7 -115 0 -88 3 -108 16 -113 23 -9 187 -7
202 2 9 6 12 37 10 118 l-3 109 -106 3 c-58 1 -108 -1 -112 -4z m193 -114 l0
-80 -85 0 -85 0 0 80 0 80 85 0 85 0 0 -80z"/>
<path d="M1596 2843 c-15 -16 -3 -43 32 -72 l37 -31 -37 -31 c-53 -43 -52 -96
3 -125 37 -19 36 -34 -4 -59 -21 -13 -33 -30 -35 -48 -2 -15 -1 -27 3 -27 3 0
28 22 55 49 56 56 57 79 4 110 -43 26 -45 55 -4 76 39 20 54 49 40 75 -6 11
-24 27 -40 35 -17 9 -30 22 -30 30 0 16 -14 27 -24 18z"/>
<path d="M2525 2699 c-4 -6 2 -20 14 -33 19 -20 19 -23 4 -38 -9 -10 -13 -23
-9 -34 6 -15 9 -15 31 6 23 22 26 22 43 7 20 -18 42 -22 42 -9 0 5 -9 17 -20
27 -19 18 -19 18 0 46 26 35 8 50 -24 20 l-23 -21 -18 20 c-20 23 -31 25 -40
9z"/>
<path d="M522 2569 c-12 -5 -30 -22 -40 -39 -22 -39 -35 -38 -61 5 -15 25 -27
35 -46 35 -16 0 -25 -6 -25 -15 0 -8 7 -15 15 -15 8 0 25 -16 37 -35 31 -48
67 -48 104 0 14 19 32 35 39 35 7 0 25 -16 39 -35 20 -26 35 -35 56 -35 21 0
33 8 49 35 11 19 27 35 36 35 8 0 15 7 15 15 0 9 -9 15 -25 15 -19 0 -31 -10
-46 -35 -26 -43 -38 -43 -64 -3 -23 36 -51 49 -83 37z"/>
<path d="M2890 2465 c0 -8 6 -15 14 -15 8 0 24 -15 35 -34 36 -58 76 -59 110
-1 26 44 45 44 73 0 38 -58 73 -57 107 1 11 19 27 34 36 34 8 0 15 7 15 15 0
35 -56 10 -80 -36 -15 -27 -33 -24 -53 11 -31 52 -95 52 -122 -1 -18 -33 -40
-38 -55 -10 -24 46 -80 71 -80 36z"/>
<path d="M2244 2341 c-57 -24 -85 -100 -58 -156 33 -70 129 -89 182 -36 50 51
48 126 -6 174 -24 22 -87 31 -118 18z m75 -31 c4 0 17 -9 29 -20 32 -30 30
-84 -4 -115 -68 -63 -162 11 -128 100 8 20 63 46 82 40 8 -3 17 -5 21 -5z"/>
<path d="M750 2085 c0 -124 2 -145 15 -145 23 0 245 131 245 144 0 11 -229
146 -249 146 -8 0 -11 -45 -11 -145z m127 47 l82 -49 -67 -38 c-37 -21 -77
-45 -89 -53 l-23 -14 0 101 c0 55 3 101 8 101 4 0 44 -22 89 -48z"/>
<path d="M217 2214 c-19 -20 4 -24 124 -24 100 0 130 3 127 13 -5 13 -238 24
-251 11z"/>
<path d="M1463 2184 c-46 -23 -85 -114 -49 -114 8 0 20 16 26 35 11 34 51 65
84 65 26 0 76 -50 76 -76 0 -15 6 -24 15 -24 20 0 20 49 -1 78 -19 27 -65 52
-96 52 -13 0 -37 -8 -55 -16z"/>
<path d="M1910 2170 c-24 -24 -25 -38 -4 -68 17 -24 62 -30 82 -10 17 17 15
64 -4 82 -21 22 -50 20 -74 -4z m60 -35 c0 -19 -20 -29 -32 -17 -15 15 -2 43
17 36 8 -3 15 -12 15 -19z"/>
<path d="M3038 2107 c-65 -18 -122 -37 -128 -42 -6 -7 23 -44 94 -114 92 -92
105 -101 114 -85 10 20 72 245 72 263 0 16 -23 13 -152 -22z m102 -39 c-4 -18
-15 -61 -25 -96 l-18 -63 -68 67 c-38 37 -67 70 -65 72 4 3 163 50 177 51 4 1
4 -14 -1 -31z"/>
<path d="M3526 2051 c-59 -59 -84 -91 -76 -96 14 -8 192 163 184 177 -10 15
-20 8 -108 -81z"/>
<path d="M507 1849 c-43 -25 -41 -75 4 -99 30 -17 69 11 69 49 0 41 -40 68
-73 50z m43 -49 c0 -13 -7 -20 -20 -20 -13 0 -20 7 -20 20 0 13 7 20 20 20 13
0 20 -7 20 -20z"/>
<path d="M2120 1836 c0 -8 8 -17 18 -21 9 -3 26 -20 37 -38 30 -47 67 -48 97
-3 30 47 59 47 87 0 27 -46 66 -45 96 3 11 18 28 35 38 38 9 4 17 13 17 21 0
26 -33 14 -71 -27 l-37 -41 -18 29 c-41 66 -78 70 -126 12 l-34 -40 -32 40
c-32 40 -72 55 -72 27z"/>
<path d="M1454 1809 c-3 -6 3 -20 14 -32 20 -19 20 -22 5 -48 -22 -38 -9 -48
22 -19 l25 23 24 -22 c31 -29 48 -8 17 22 l-21 21 22 23 c17 18 19 26 10 35
-9 9 -17 7 -35 -10 l-24 -22 -18 20 c-20 23 -31 25 -41 9z"/>
<path d="M3617 1692 c-33 -36 -8 -92 40 -92 25 0 53 30 53 57 0 46 -62 69 -93
35z m58 -22 c4 -6 1 -18 -6 -26 -11 -13 -14 -13 -27 0 -8 8 -11 19 -8 25 9 14
33 14 41 1z"/>
<path d="M1806 1565 c-36 -63 -66 -121 -66 -130 0 -13 21 -15 145 -15 102 0
145 3 145 11 0 21 -135 248 -147 249 -6 0 -41 -52 -77 -115z m128 -23 c26 -46
45 -86 43 -88 -2 -3 -47 -3 -100 -2 l-96 3 51 88 c28 48 52 86 53 85 1 -2 24
-41 49 -86z"/>
<path d="M2990 1627 c0 -8 9 -22 20 -32 l20 -18 -21 -23 c-25 -27 -7 -45 20
-20 10 9 21 16 26 16 5 0 16 -7 26 -16 28 -26 44 -6 18 22 -21 22 -21 25 -6
42 33 37 12 58 -25 25 -17 -15 -19 -15 -36 0 -22 20 -42 22 -42 4z"/>
<path d="M1067 1574 c-4 -4 -7 -56 -7 -116 l0 -108 115 0 116 0 -3 113 -3 112
-106 3 c-58 1 -108 -1 -112 -4z m193 -111 l0 -83 -85 0 -85 0 0 78 c0 43 2 81
5 83 2 3 40 5 85 5 l80 0 0 -83z"/>
<path d="M373 1550 c-35 -21 -63 -66 -63 -102 0 -37 38 -88 77 -105 78 -32
153 20 153 106 0 55 -20 88 -66 107 -44 19 -63 18 -101 -6z m116 -46 c28 -36
27 -79 -4 -109 -51 -52 -135 -18 -135 54 0 76 94 113 139 55z"/>
<path d="M2434 1559 c-14 -23 17 -30 127 -27 99 3 114 5 117 21 3 15 -8 17
-117 17 -75 0 -122 -4 -127 -11z"/>
<path d="M3441 1424 c-95 -79 -18 -230 102 -200 35 8 76 53 83 91 19 103 -105
176 -185 109z m124 -29 c41 -40 33 -105 -16 -130 -39 -21 -53 -19 -88 11 -23
19 -31 34 -31 58 0 74 84 112 135 61z"/>
<path d="M3107 1313 c-9 -15 12 -51 42 -72 39 -28 39 -36 1 -56 -59 -31 -59
-94 1 -129 37 -22 37 -30 -5 -55 -35 -22 -49 -50 -36 -71 9 -15 30 -5 30 15 0
7 16 22 35 34 28 16 35 27 35 51 0 24 -7 35 -35 51 -44 26 -45 54 -5 77 53 29
53 80 1 110 -17 9 -32 25 -35 34 -4 18 -21 24 -29 11z"/>
<path d="M2623 1238 c-30 -38 -133 -230 -128 -238 8 -13 282 -13 290 -1 6 11
-126 243 -142 248 -5 2 -15 -2 -20 -9z m69 -126 c24 -42 44 -79 46 -83 1 -3
-43 -7 -99 -8 -61 -1 -100 2 -98 7 13 33 95 169 101 166 4 -3 26 -39 50 -82z"/>
<path d="M1224 1167 c-8 -22 12 -55 46 -72 17 -9 30 -20 30 -25 0 -5 -13 -16
-30 -25 -62 -32 -65 -74 -9 -126 l41 -38 -35 -21 c-36 -21 -54 -51 -42 -70 9
-15 25 -12 25 5 0 9 16 25 35 36 50 30 57 65 19 96 -16 13 -35 28 -41 34 -20
15 -16 26 20 50 52 37 62 67 31 91 -9 7 -32 28 -50 46 -27 26 -35 30 -40 19z"/>
<path d="M2226 1089 c-14 -11 -26 -28 -26 -38 0 -40 69 -68 98 -39 20 20 14
65 -10 82 -29 20 -30 20 -62 -5z m54 -39 c0 -13 -7 -20 -20 -20 -13 0 -20 7
-20 20 0 13 7 20 20 20 13 0 20 -7 20 -20z"/>
<path d="M295 1040 c-4 -6 0 -19 9 -29 20 -22 20 -30 -1 -53 -13 -14 -14 -21
-5 -30 9 -9 17 -6 35 10 21 20 25 21 37 7 15 -18 40 -20 40 -3 0 6 -7 20 -17
30 -15 17 -15 19 0 36 17 19 23 42 10 42 -4 0 -17 -10 -30 -22 l-23 -21 -24
22 c-16 15 -26 19 -31 11z"/>
<path d="M1772 927 c-79 -79 -97 -107 -69 -107 20 0 180 166 173 179 -4 6 -10
11 -14 11 -4 0 -44 -37 -90 -83z"/>
<path d="M805 841 c-55 -15 -112 -31 -127 -35 -16 -3 -28 -12 -28 -19 0 -12
190 -207 202 -207 9 0 17 24 49 145 32 123 35 145 17 144 -7 0 -58 -13 -113
-28z m64 -102 c-12 -46 -25 -87 -29 -91 -3 -4 -36 23 -73 60 l-68 69 93 25
c51 14 94 24 96 22 2 -1 -7 -40 -19 -85z"/>
<path d="M2920 758 c0 -6 7 -20 17 -30 15 -17 15 -19 0 -36 -33 -36 -12 -58
24 -26 16 15 20 15 41 0 12 -9 26 -16 30 -16 13 0 9 23 -8 41 -15 17 -15 20 0
43 9 14 16 28 16 31 0 11 -24 4 -42 -12 -17 -15 -19 -15 -36 0 -22 20 -42 22
-42 5z"/>
<path d="M2240 631 c-33 -32 -48 -77 -32 -93 8 -8 14 -3 22 18 29 75 94 97
143 48 14 -14 27 -34 29 -45 4 -28 22 -24 26 6 2 18 -6 35 -31 60 -30 30 -42
35 -82 35 -38 0 -52 -5 -75 -29z"/>
<path d="M412 594 c-26 -18 -52 -65 -52 -94 0 -51 65 -120 113 -120 25 0 18
34 -8 38 -64 12 -89 102 -39 141 15 12 35 21 45 21 11 0 19 7 19 15 0 20 -49
20 -78 -1z"/>
<path d="M3322 498 l3 -113 110 0 110 0 3 113 3 112 -116 0 -116 0 3 -112z
m197 2 l0 -80 -84 0 -85 0 0 80 0 80 84 0 84 0 1 -80z"/>
<path d="M1809 506 c-75 -25 -100 -127 -45 -185 35 -36 74 -46 121 -31 50 17
75 53 75 111 0 39 -5 53 -30 77 -33 34 -74 43 -121 28z m96 -51 c62 -61 -3
-162 -86 -133 -39 13 -64 64 -50 102 22 57 94 74 136 31z"/>
<path d="M1121 411 c-33 -21 4 -31 119 -31 76 0 121 4 126 11 13 21 -21 29
-126 29 -58 0 -111 -4 -119 -9z"/>
<path d="M2812 410 c-12 -5 -30 -23 -40 -40 -22 -39 -35 -38 -61 5 -15 25 -27
35 -46 35 -16 0 -25 -6 -25 -15 0 -8 6 -15 14 -15 7 0 26 -16 40 -35 18 -23
35 -35 51 -35 16 0 33 12 51 35 14 19 32 35 39 35 7 0 25 -16 39 -35 20 -26
35 -35 56 -35 21 0 33 8 49 35 11 19 27 35 36 35 8 0 15 7 15 15 0 36 -56 10
-86 -41 -11 -18 -14 -16 -51 24 -42 45 -45 46 -81 32z"/>
</g>
</svg>
